<?xml version="1.0" encoding="utf-8"?>
<!-- Generator: Adobe Illustrator 24.0.1, SVG Export Plug-In . SVG Version: 6.00 Build 0)  -->
<svg version="1.1" id="Layer_1" xmlns="http://www.w3.org/2000/svg" xmlns:xlink="http://www.w3.org/1999/xlink" x="0px" y="0px"
	 viewBox="0 0 646 640" style="enable-background:new 0 0 646 640;" xml:space="preserve">
<style type="text/css">
	.st0{opacity:0.5;}
	.st1{fill:#0278DF;fill-opacity:0.1;}
	.st2{fill:#0278DF;fill-opacity:0.3;}
	.st3{fill:#0278DF;}
	.st4{fill:#3B2D51;}
	.st5{fill:#732C84;}
	.st6{fill:#AB56BF;}
	.st7{fill:#DDCBA6;}
	.st8{fill:#BF63D6;}
	.st9{fill:#EFE3CA;}
	.st10{opacity:0.45;}
	.st11{fill:#FFFFFF;}
	.st12{opacity:0.6;}
	.st13{fill:#C94343;}
	.st14{fill:#964532;}
	.st15{fill:#7F3425;}
	.st16{fill:#FFB94A;}
	.st17{fill:#DB2828;}
	.st18{fill:#ED4848;}
	.st19{fill:#FFE9CA;}
	.st20{fill:#6D2D4A;}
	.st21{fill:#934769;}
	.st22{fill:#FF9566;}
	.st23{fill:#FFB882;}
	.st24{fill:#EADDBE;}
	.st25{fill:#F4E9D3;}
	.st26{fill:#D8C091;}
	.st27{fill:#7C3552;}
	.st28{fill:#DBC7A1;}
	.st29{fill:#E0D0B1;}
	.st30{fill:#FF9A3E;}
	.st31{fill:#ED8129;}
	.st32{fill:#F4E9D4;}
	.st33{opacity:0.39;}
	.st34{fill:#5E85BC;}
	.st35{fill:#4E75A5;}
	.st36{fill:#749DCE;}
	.st37{fill:#DB5B3E;}
	.st38{fill:#66423B;}
	.st39{fill:#7C4343;}
	.st40{fill:#EA7B59;}
	.st41{fill:#491D2E;}
	.st42{fill:#FFEBEB;}
	.st43{fill:#EF8F6F;}
	.st44{fill:#8B54B2;}
	.st45{fill:#634C84;}
	.st46{fill:#E2D5AF;}
	.st47{fill:#F7F0DA;}
	.st48{fill:#4C396B;}
	.st49{fill:#F24C5C;}
	.st50{fill:#D63444;}
	.st51{fill:#B72036;}
	.st52{fill:#6D3E4C;}
	.st53{fill:#592E3C;}
	.st54{fill:#FF9239;}
	.st55{fill:#FF6D2C;}
	.st56{fill:#7A4939;}
	.st57{fill:#603428;}
	.st58{fill:#DBCCAD;}
	.st59{fill:#D1BB93;}
	.st60{fill:#BA9E70;}
	.st61{fill:#F9F0E1;}
	.st62{fill:#F2E9CE;}
	.st63{fill:#503D70;}
	.st64{fill:#4F3131;}
	.st65{fill:#B7BF47;}
	.st66{fill:#999B32;}
	.st67{opacity:0.58;}
	.st68{fill:#FFF9F1;}
	.st69{fill:#A5A53A;}
	.st70{opacity:0.42;}
	.st71{fill:#602540;}
	.st72{fill:#D8C5A0;}
	.st73{fill:#DBC8A2;}
	.st74{fill:#D3BB92;}
	.st75{fill:#F4E8CE;}
	.st76{fill:#CE5230;}
	.st77{fill:#CEB995;}
	.st78{fill:#EF7335;}
	.st79{fill:#4B6F9B;}
	.st80{fill:#F4E6C9;}
	.st81{fill:#633D37;}
	.st82{fill:#FFC69F;}
	.st83{fill:#472922;}
	.st84{fill:#FFF6E3;}
</style>
<g>
	<g class="st0">
		<g>
			<ellipse class="st1" cx="291.9" cy="320" rx="291.5" ry="287.6"/>
		</g>
		<g>
			<ellipse class="st2" cx="291.9" cy="320" rx="211" ry="207.1"/>
		</g>
		<g>
			<ellipse class="st3" cx="291.9" cy="320" rx="122.7" ry="120.1"/>
		</g>
	</g>
	<path class="st4" d="M520.1,392.5H296.6l-45.5,202.7h223.5L520.1,392.5z"/>
	<path class="st5" d="M311.8,179.7h-33.3l-8.9,148.1h37.7L311.8,179.7z"/>
	<path class="st6" d="M315.9,179.7H282l-8.8,148.1h38.3L315.9,179.7z"/>
	<path class="st5" d="M321,183.4h-33.9l-14,143.9l35.8,0.2L321,183.4z"/>
	<path class="st7" d="M313.1,181.7c-8.2,3.2-16.7,3.5-25.6,1.5l-10,142.7c10.9-2,21.4-2,29,0.3L313.1,181.7z"/>
	<path class="st5" d="M398.8,177h-88.6l-11.5,150.8h90.4L398.8,177z"/>
	<path class="st8" d="M402.8,177h-88.6l-11.5,150.8h90.4L402.8,177z"/>
	<path class="st9" d="M296.7,184.4c-3.1-0.1-6.2-0.5-9.2-1.2l-10,142.7c4.3-0.8,8.6-1.3,13-1.4L296.7,184.4z"/>
	<g class="st10">
		<g class="st10">
			<path class="st11" d="M389.6,322h-82.4l10.4-139.2h80.7L389.6,322z M308.8,320.6h79.5l8.6-136.3H319L308.8,320.6z"/>
		</g>
	</g>
	<g class="st10">
		<g class="st10">
			<path class="st11" d="M385.6,316.9h-73.6l9.3-129h72.1L385.6,316.9z M313.5,315.5h71l7.7-126.3h-69.5L313.5,315.5z"/>
		</g>
	</g>
	<g class="st12">
		<path class="st13" d="M362.7,176.9l-20.9,59.3l-21.3-11.5l-11.8,23.8l-5.8,79.2h87.9l12.1-54.5l-19.7-96.2H362.7z"/>
	</g>
	<path class="st14" d="M387.1,109.6c-11.8-4.2-8.6-15.9-4-17.8c4.5-2,15.8,0.2,13.4,11.2C394,114,387.1,109.6,387.1,109.6z"/>
	<path class="st15" d="M388.3,102.7c-5.1-1.8-7.4-5.1-8-8.3c-2.5,4.3-2.5,12,6.7,15.3c0,0,7,4.4,9.4-6.6c0.3-1.2,0.4-2.5,0.3-3.8
		C393.8,106.1,388.3,102.7,388.3,102.7z"/>
	<path class="st16" d="M390.3,110.7c-9.3-2.4-6.7-9.2-3.2-10.3c3.5-1.1,12.5,0.1,10.5,6.5C395.7,113.2,390.3,110.7,390.3,110.7z"/>
	<path class="st14" d="M392.6,158.7c-16.3-11.7-16.2-39.7-8.9-50.4c7.3-10.7,27-10.7,35.4-1c8.4,9.7,9.3,25.3,2,33.6
		C413.8,149.3,392.6,158.7,392.6,158.7z"/>
	<path class="st15" d="M422.2,132.2c-0.4-17.4-2.8-22-10.2-26.4c0,0,8.8,7.3,4.6,17.6L422.2,132.2z"/>
	<path class="st15" d="M416.9,131.8c-5-18.6-8.6-22.9-17-26.1c0,0,10.5,6,9.2,17.8L416.9,131.8z"/>
	<path class="st15" d="M401.3,126.2c-8.9-7.6-12.9-17.2-7.2-23.9c0.5-0.5,1-1,1.5-1.5c-4.8,0.9-9,3.6-11.9,7.5
		c-7.3,10.7-7.5,38.7,8.9,50.4c0,0,21.2-9.5,28.5-17.8c2.5-3,4.1-6.6,4.6-10.5C419.8,136.3,409.9,133.4,401.3,126.2z"/>
	<path class="st17" d="M443,231.8c-1.2-26.8-28.6-57.1-31.4-57.3c-2.8-0.2-2.3,11.2,4.6,22.4c6.9,11.2,14.5,37.9,15.4,40.7
		C432.4,240.4,443.2,236.6,443,231.8z"/>
	<path class="st18" d="M411.9,172c-1.3-0.1-2,2.8-1.6,7.1c5.4,4.2,27.5,32.6,29.9,57c1.6-1.2,2.8-2.7,2.7-4.3
		C441.8,205,414.7,172.2,411.9,172z"/>
	<path class="st18" d="M349.3,233.4c1.2-26.8,28.6-60.4,31.4-60.6c2.8-0.2,1.8,19.1-5.1,30.4c-6.9,11.2-14,33.3-14.9,36.1
		C359.8,242.1,349,238.2,349.3,233.4z"/>
	<path class="st17" d="M373.5,197.9c-8.5,12.3-11.4,31-24,30.4c-0.8,0,5.5,10.5,4.1,10.4c3,1.6,6.7,2.1,7.1,0.6
		c0.9-2.8,10.5-26.1,17.4-37.3c3.9-6.3,0-16.4,0.5-22.9C376.7,185.1,377.2,192.5,373.5,197.9z"/>
	<path class="st19" d="M366.2,232c-5.2-4.3-15.6-5.7-18.3-4c-2.7,1.7-1.6,14.2,6.1,16.3C361.7,246.5,366.2,232,366.2,232z"/>
	<path class="st18" d="M409.3,197l-28.9-14.2c13.4,62.5-1,54.8,2.4,79.1c16.4,6.8,32.2,4.2,47.4-7.1C415,251.5,409.3,197,409.3,197z
		"/>
	<path class="st17" d="M393.2,261.6c-3.7-15.4,1.8-29.9,12.3-32.4c3.4-0.8,7-0.3,10.1,1.3c-2.9-11-5-22.2-6.3-33.6l-28.9-14.2
		c13.4,62.5-1,54.8,2.4,79.1c3.7,1.5,7.5,2.6,11.4,3.2C393.8,263.9,393.5,262.8,393.2,261.6z"/>
	<path class="st20" d="M404.4,261l-83.7-35.5c19.4,30.2,47.1,58.7,56.5,61.3c9.4,2.6,42,4,48.5,1.4c6.5-2.6,56.7-56.3,56.7-56.3
		S417,260.7,404.4,261z"/>
	<path class="st21" d="M448.3,246.3L418,264.8l10.2-10.8L448.3,246.3z"/>
	<path class="st18" d="M379.5,173.6c-5.5,9.7,0,45.1,2.5,47.5c2.5,2.4,38.8-1.7,40.6-3.3c1.8-1.6-7.2-43.2-10.1-45.4
		c-2.9-2.2-12.2-5.9-14.4-6.1C396.1,166.1,380.1,172.5,379.5,173.6z"/>
	<path class="st17" d="M384.4,217.9c-1.9-1.9-6.4-22.9-6.7-38.5c-2.1,13.7,2,40.5,4.1,42.5c2.5,2.4,39-2.6,40.8-4.2
		c0.2-0.2,0.3-1.1,0.2-2.5C415.1,217.2,386.7,220.3,384.4,217.9z"/>
	<path class="st22" d="M411.9,224.5c0,3-1.7,3.8-2.1,5.9c-0.4,2-1.4-0.9-1-2.5C409.3,226.2,411.9,224.5,411.9,224.5z"/>
	<path class="st23" d="M406.5,226.9c2.9,2,4.1,1.3,4.7,0.6c0.5-0.8,1-1.6,1.3-2.5l-3.2-0.9l0.1,2.1
		C409.3,226.1,404.7,225.6,406.5,226.9z"/>
	<path class="st23" d="M404.4,227.8c2.9,2,4.1,1.3,4.7,0.6c0.5-0.8,1-1.6,1.3-2.5l-3.2-0.9l0.1,2.1
		C407.2,227,402.6,226.5,404.4,227.8z"/>
	<path class="st23" d="M355,232.3c12.3-4.8,49.5-9.1,49.5-9.1l0.3,0.9c0,0-36.2,21-47.7,18.8C345.6,240.7,350,234.3,355,232.3z"/>
	<path class="st22" d="M361.3,236.7c-4.3-1.1-6.5-2.5-7.2-3.9c-4.6,2.3-7.9,8.2,3,10.2c11.5,2.2,47.7-18.8,47.7-18.8l-0.1-0.3
		C393.3,229,370.2,238.7,361.3,236.7z"/>
	<path class="st23" d="M411.8,223.7c-2.2-2-7.2-1.6-11.2,0.1l-1.2,2.4c3.3-0.7,8.3,0.7,9.8,1.1C410.7,227.6,414,225.7,411.8,223.7z"
		/>
	<path class="st23" d="M411.5,223.5c2.6,2.1,6.5,7.2,6.4,8.1c-0.1,0.9-3-2-3.8-3c-1.2-1.2-2.4-2.2-3.8-3.2L411.5,223.5z"/>
	<path class="st24" d="M433.2,181.8l-28.5,62.9l-28.7,1.5l-1.7,1.5l89.5-1.3l30.6-64.6H433.2z"/>
	<path class="st25" d="M433.1,181.9c25.5,11,36,32.3,30.6,64.6l30.6-64.6H433.1z"/>
	<path class="st26" d="M406.8,247.2l29.4-65.4h-3.1l-28.5,62.9l-28.7,1.5l-1.7,1.5L406.8,247.2z"/>
	<path class="st21" d="M485.9,213.4c-11.3,2.6-36.9,31.1-67,73.9l0.6,1.6c0,0,52.2-40.3,58.4-47.8
		C484.1,233.6,497.2,210.8,485.9,213.4z"/>
	<path class="st27" d="M479,236.3c-4.7,5.1-34,25.8-50.1,37.1c-3.3,4.4-6.6,9-9.9,13.9l0.6,1.6c0,0,52.5-39.5,58.7-46.9
		c3.3-4,8.3-13.3,10.8-19.8C486.2,227.2,482.9,232,479,236.3z"/>
	<path class="st27" d="M423.5,280.7l27.3-20.6c0,0,13.5-25.3,27.5-42.9C466,226.2,446.2,249.1,423.5,280.7z"/>
	<path class="st21" d="M321.9,223.1c-6.8,4.9,7.8,14.9,21.4,28.8c13.6,13.9,38.5,18.1,77.6,36.9l1.6-1
		C375.9,243.8,328.7,218.2,321.9,223.1z"/>
	<path class="st27" d="M406.2,273.3c-32.7-13.8-54.1-18.1-66.5-30.4c-7.3-7.2-14.8-13.3-19.3-18.2c-2.4,5.3,10.2,15.8,22.5,28.3
		c13.6,13.9,38.8,17.1,78,35.8l1.6-1C417.1,282.8,411.6,277.9,406.2,273.3z"/>
	<path class="st28" d="M420.7,290.7l4.7-7.6c-4.6-4.4-9.7-8.2-15.2-11.4L420.7,290.7z"/>
	<path class="st24" d="M421.3,289.5l-6-2c0,0,4.7-8.4,17.5-14.5L421.3,289.5z"/>
	<path class="st19" d="M409.8,170.5c-4-2.1-10-5.3-11.6-5.5c-1.6-0.2-12.2,4.8-16.6,7.2c8.4,29.4,23.1,41.6,23.1,41.6
		S411.2,171.2,409.8,170.5z"/>
	<path class="st17" d="M409.8,170.5l-1-0.5c-0.7,10.1-5.3,40-5.3,40s-13.4-11.2-21.9-37.8h-0.1c8.4,29.4,23.4,43.2,23.4,43.2
		S411.2,171.2,409.8,170.5z"/>
	<path class="st23" d="M388.3,169.3c-0.2-19.3,2.7-30.5,2.7-30.5l11.5,10.4l-0.6,17.3c0,0-2.7,5.8-6.3,6.3
		C392.1,173.3,388.3,169.3,388.3,169.3z"/>
	<path class="st29" d="M502.6,289.1h-71.5c-12.7,0-16.3,36.9-3.6,36.9H499C492.5,321,493.4,294.9,502.6,289.1z"/>
	<path class="st30" d="M435.5,287.3h-99.7c-19.8-0.6-22,40-2.2,40.5h99.7C416.3,327.3,418.5,286.7,435.5,287.3z"/>
	<path class="st31" d="M432.4,327.7c-7.3-0.9-10.7-9.3-10.8-18.3H319.7c0.2,9.3,4.7,18.1,13.8,18.4L432.4,327.7L432.4,327.7z"/>
	<path class="st16" d="M503.4,287.3H424l-0.7,3.8h79.4c0.5,0,1.1-0.2,1.5-0.6c0.4-0.3,0.7-0.8,0.8-1.4c0.1-0.2,0.1-0.5,0-0.7
		c-0.1-0.2-0.2-0.5-0.3-0.6c-0.1-0.2-0.3-0.3-0.6-0.4C503.9,287.3,503.6,287.2,503.4,287.3z"/>
	<path class="st16" d="M501.7,324.5h-79.1l-0.8,3.3h79.1c0.5,0,1-0.2,1.4-0.5c0.4-0.3,0.7-0.7,0.9-1.2c0-0.2,0-0.4,0-0.7
		c-0.1-0.2-0.2-0.4-0.3-0.6c-0.2-0.2-0.3-0.3-0.5-0.4C502.1,324.5,501.9,324.4,501.7,324.5z"/>
	<path class="st32" d="M497.3,296.5h-61.8c-12.7,0-14.1,24.8-1.4,24.8h62C494,314.8,494.4,304,497.3,296.5z"/>
	<path class="st16" d="M435.5,287.3h-11.8c-9.3,7.7-10.4,32.9-1.5,40.5h11.1C416.3,327.3,418.5,286.7,435.5,287.3z"/>
	<g class="st33">
		<g class="st33">
			<path class="st11" d="M415.6,326.4h-76c-2.5,0-5-0.7-7.1-2c-2.1-1.3-3.9-3.2-5-5.4c-3.5-6.5-3.2-16,0.9-22.7
				c1.3-2.4,3.3-4.3,5.7-5.7c2.4-1.3,5.1-2,7.8-1.9H417l-1.7,1.3c-4.6,3.5-7.5,10.7-7.5,18.5c-0.1,7.2,2.3,13.4,6.3,16.6
				L415.6,326.4z M341.4,290.1c-2.4,0-4.8,0.6-6.8,1.8c-2.1,1.2-3.8,3-5,5c-3.8,6.2-4.2,15.1-0.9,21.2c1,2,2.6,3.7,4.5,4.9
				c1.9,1.2,4.1,1.8,6.4,1.8h72.1c-3.5-3.7-5.5-9.7-5.4-16.5c0.1-7.5,2.6-14.3,6.6-18.4H341.4z"/>
		</g>
	</g>
	<path class="st29" d="M541.1,324.9H430.4c-19.6,0-20.6,71-1.1,71h110.8C529.5,386.3,527.6,336.2,541.1,324.9z"/>
	<path class="st34" d="M437,321.4H282.6c-30.7-1.1-29.1,76.8,1.7,78h154.4C412.3,398.4,410.6,320.4,437,321.4z"/>
	<path class="st35" d="M437.3,399.2c-11.3-1.6-17.8-17.9-19-35.2H260.7c1.5,17.9,9.5,34.8,23.6,35.4h153L437.3,399.2z"/>
	<path class="st36" d="M542.1,321.4H419.2l-0.6,7.4h122.9c1.6,0,3.1-1.7,3.3-3.7C544.9,323.1,543.8,321.4,542.1,321.4z"/>
	<path class="st36" d="M544.1,393H421.6l-0.8,6.4h122.5c0.8,0,1.6-0.4,2.3-1c0.6-0.6,1-1.4,1.1-2.2c0.1-0.4,0.1-0.8,0-1.2
		c-0.1-0.4-0.3-0.7-0.5-1c-0.2-0.3-0.6-0.6-0.9-0.7C544.9,393.1,544.5,393,544.1,393z"/>
	<path class="st32" d="M533.9,339.2h-95.6c-19.6,0-18.8,47.6,0.8,47.6h96C531.1,374.4,530.3,353.6,533.9,339.2z"/>
	<path class="st36" d="M437,321.4h-18.3c-13.5,14.7-12,63.2,2.7,78h17.3C412.3,398.4,410.6,320.4,437,321.4z"/>
	<g class="st33">
		<g class="st33">
			<path class="st11" d="M411.1,396.6H293.6c-8.2-0.3-15.2-5.3-19.7-14.4c-6.3-12.5-6.9-30.8-1.4-43.6c4.1-9.7,11.2-14.8,19.9-14.6
				h116.2l-2.4,2.5c-6.6,6.8-10.2,20.4-9.3,35.6c0.8,13.9,5.2,25.8,11.7,32L411.1,396.6z M291.8,327c-7.6,0-13.7,4.7-17.4,13.2
				c-5.1,11.9-4.6,29.1,1.3,40.8c2.9,5.7,8.3,12.6,17.7,13H405c-5.8-7.1-9.7-18.6-10.4-31.7c-0.8-14.3,2.2-27.5,8-35.3L291.8,327
				L291.8,327z"/>
		</g>
	</g>
	<g class="st12">
		<path class="st13" d="M400.7,195c7.6-4.5,11.4-13.5,10.9-23.2c-0.5-0.3-1-0.6-1.6-0.9c0-0.1,0-0.1,0-0.2c0,0,0-0.1,0-0.1
			c0,0,0-0.1-0.1-0.1c-2.4-1.3-5.5-2.9-7.9-4.1l0.6-15.7c-3.3-3.6-7.6-6.2-12.3-7.6c-1.4,8.5-2,17.1-1.9,25.7
			c-2.5,1.2-5,2.5-6.7,3.4h-0.1v0.1c-0.4,0.2-0.8,0.4-1.2,0.6c-1.3,0.4-5.7,5.2-10.9,12.4C377.3,196.6,390.5,200.9,400.7,195z"/>
	</g>
	<path class="st23" d="M389.3,133.4c-6.2,26.7,15.4,37.1,15.4,37.1s17-16.4,19-36.9c1.1-11.1-0.5-14.5-11.5-16.2
		C401.1,115.7,390.9,126.4,389.3,133.4z"/>
	<path class="st15" d="M390.6,148.3c5.7-16.5,6.9-30.4,0.2-29.7C384,119.3,381.1,143.1,390.6,148.3z"/>
	<path class="st23" d="M391.5,150.6c1.4-14.1,0.2-15.9-4.3-15.9C382.2,134.6,381.8,148.2,391.5,150.6z"/>
	<path class="st37" d="M390.1,147.3c0.9-8.5,0.1-9.5-2.5-9.5C384.5,137.8,384.3,145.9,390.1,147.3z"/>
	<path class="st23" d="M390.3,148.4c0-5.5-0.6-6.1-2.5-5.9C385.6,142.6,386,147.8,390.3,148.4z"/>
	<path class="st38" d="M417.7,143.1c0.4-2.2-0.4-4.2-1.8-4.4c-1.4-0.2-2.8,1.5-3.2,3.7c-0.4,2.2,0.4,4.2,1.8,4.4
		C415.8,147,417.3,145.4,417.7,143.1z"/>
	<path class="st38" d="M404.2,141.3c0.5-2.6-0.2-4.8-1.7-5.1c-1.5-0.3-3.1,1.5-3.6,4.1c-0.5,2.6,0.2,4.9,1.7,5.1
		C402,145.7,403.6,143.9,404.2,141.3z"/>
	<path class="st38" d="M396.6,139.2c0,0,5.3-2.7,9.2-1.4c0,0-0.6-2.2-3.8-2.1C398.9,135.7,396.6,139.2,396.6,139.2z"/>
	<path class="st38" d="M419.8,141.5c0,0-3.7-3.2-7.6-2.7c0.5-0.6,1.1-1,1.8-1.2c0.7-0.2,1.4-0.2,2.1,0
		C418.8,138.1,419.8,141.5,419.8,141.5z"/>
	<path class="st39" d="M396.5,134.3l-0.1-0.6c1-1.4,2.3-2.5,3.8-3.3c1.5-0.8,3.1-1.4,4.8-1.5l-0.1,2
		C403.1,130.5,398.7,131.7,396.5,134.3z"/>
	<path class="st39" d="M421.2,136.7c-1.8-3.6-6.2-4.9-7.3-4.9l0.5-1.9c1.3,0.1,5.3,1.7,7.3,6.2L421.2,136.7z"/>
	<path class="st40" d="M410.4,149.6c0,0.1,0,0.1-0.1,0.2c-0.3,0.6-0.9,1.1-1.6,1.3c-0.7,0.2-1.4,0.1-2.1-0.2c-0.4-0.2-0.7-0.5-1-0.8
		c-0.3-0.4-0.4-0.8-0.5-1.2c-0.3,0.6-0.3,1.4,0,2c0.2,0.7,0.7,1.2,1.3,1.5c0.4,0.3,1,0.4,1.5,0.4c0.5,0,1-0.2,1.4-0.5
		c0.4-0.3,0.7-0.7,0.9-1.2C410.5,150.6,410.5,150.1,410.4,149.6L410.4,149.6z"/>
	<path class="st41" d="M400.5,156l9.4,1.5c0,0-2,4.5-5.8,3.8C400.2,160.6,400.5,156,400.5,156z"/>
	<path class="st42" d="M401.1,156.3l8,1.3c0,0,0.1,2.1-4.4,1.5C399.8,158.4,401.1,156.3,401.1,156.3z"/>
	<path class="st43" d="M405.8,163.1c0.1-0.6-0.8-0.1-1.8-0.3c-1-0.2-1.7-0.9-1.8-0.3c-0.1,0.6,0.6,1.2,1.6,1.4
		C404.7,164.1,405.6,163.7,405.8,163.1z"/>
	<path class="st44" d="M495.5,359.8H383.3L376,468.3l73.7,101.4L495.5,359.8z"/>
	<path class="st45" d="M498.4,363.8H386.1l-7.2,108.5l73.7,101.5L498.4,363.8z"/>
	<path class="st46" d="M497.4,369H385.1l-40.8,189.7l107.4,20.3L497.4,369z"/>
	<path class="st47" d="M395.3,377.9c20-0.5,36.8-2,36.8-6.5c0-0.2,0-0.4-0.1-0.6h-43.1L395.3,377.9z"/>
	<path class="st4" d="M386.1,367.9c13.7,2.1,20.5,9.2,18.5,18.1C402.2,397.4,386.1,367.9,386.1,367.9z"/>
	<path class="st45" d="M510.7,384.5H398.4l-45.8,210h112.3L510.7,384.5z"/>
	<path class="st48" d="M532.5,384.5H420.2l-45.8,210h112.3L532.5,384.5z"/>
	<g>
		<path class="st24" d="M404.2,399.1L364,583.3h98.5l40.1-184.2H404.2z M460.9,580.3h-93.1l37.9-178.2h93L460.9,580.3z"/>
	</g>
	<g class="st12">
		<path class="st13" d="M404.8,359.9l3,3.6l-0.8,5.3l13.1,15.8h17.2l4.1-24.7H404.8z"/>
	</g>
	<path class="st49" d="M588.3,332.9H471.1c-1.8,0-3.4,0.7-4.7,1.9c-1.3,1.2-2,2.9-2.1,4.6l-14.9,248.5c-0.1,0.9,0.1,1.9,0.4,2.8
		c0.3,0.9,0.8,1.7,1.5,2.4c0.6,0.7,1.4,1.2,2.3,1.6c0.9,0.4,1.8,0.6,2.7,0.6h126c1.8,0,3.5-0.7,4.8-2c1.3-1.3,2-3,2.1-4.8l6.2-248.5
		c0-0.9-0.1-1.8-0.5-2.7c-0.3-0.9-0.8-1.6-1.5-2.3c-0.6-0.7-1.4-1.2-2.3-1.5C590.2,333.1,589.3,332.9,588.3,332.9z"/>
	<path class="st50" d="M521,332.9h-46c-1.4,0-2.2,2.8-1.8,6.5l27,248.5c0.4,4,2.1,7.3,3.7,7.3h49.4c1.5,0,2.3-3,1.8-6.7L524.6,340
		C524.2,336.1,522.5,332.9,521,332.9z"/>
	<g>
		<g>
			<path class="st24" d="M578.7,586.5h-101v-0.8l0.2-241.8h106.5c1,0,1.9,0.2,2.8,0.6c0.9,0.4,1.7,0.9,2.3,1.6
				c0.7,0.7,1.2,1.5,1.5,2.4c0.3,0.9,0.5,1.8,0.5,2.8l-5.7,228.3c0,1.9-0.8,3.7-2.2,5C582.3,585.8,580.5,586.5,578.7,586.5z
				 M479.3,584.8h99.3c1.4,0,2.8-0.5,3.8-1.5c1-1,1.6-2.4,1.6-3.8l5.7-228.3c0-0.7-0.1-1.5-0.4-2.1c-0.3-0.7-0.7-1.3-1.2-1.8
				c-0.5-0.5-1.1-0.9-1.8-1.2c-0.7-0.3-1.4-0.4-2.1-0.4H479.5L479.3,584.8z"/>
		</g>
	</g>
	<path class="st50" d="M473.4,332.9h-37.4l-4.5,262.3h41.7L473.4,332.9z"/>
	<path class="st51" d="M435.9,332.9l-0.1,4.3l32.4,0.3l2.3,257.7h2.6l0.2-262.3H435.9z"/>
	<path class="st52" d="M545.7,427.6c0,0,28.1,82,28.1,84.9c0.1,2.9-38.9,71-38.9,71l-0.9-0.3l19.7-68.8L537,473.4L545.7,427.6z"/>
	<path class="st53" d="M541.9,447.5L531,467.9l21.4,45.7l-18.5,69.5l0.2,0.1c7.4-16.8,26.9-67.2,26.8-69.6
		C560.9,511.7,550.2,471.9,541.9,447.5z"/>
	<path class="st52" d="M508.9,437.9c11.9,57.1,47.3,154.3,47.3,154.3h1.1l-14.1-124l7-6.6l-4-33.6C546,428,506.3,425.9,508.9,437.9z
		"/>
	<path class="st53" d="M514,452.5c16.4-15.3,22.3-14.9,27-13c2.8,1.1,5.9,1.3,8.8,0.4l-2.3-9.3l-33-1.7L514,452.5z"/>
	<path class="st53" d="M515.1,430.7c-4.3,1.5-7,3.8-6.3,7.2c11.9,57.1,47.3,154.3,47.3,154.3h1C551.4,572.2,526,481.8,515.1,430.7z"
		/>
	<path class="st53" d="M543.5,470l-9.7-3.8l9.9-0.2l8.6-7.1L543.5,470z"/>
	<path class="st16" d="M533.5,346.4c18.5,15.2,25.4,43.9,25.4,43.9l35.6-1.5l1.8,8.4c0,0-29.7,17.3-45.4,12.6
		S533.5,346.4,533.5,346.4z"/>
	<path class="st22" d="M595.6,397.4c7.6,2,12.8,0.2,14.9-2.4c2.1-2.6,5.7-9.2,2.1-9.5c-3.5-0.3-18.6,5.8-18.6,5.8L595.6,397.4z"/>
	<path class="st54" d="M561.7,396.8c-10.4-3.1-6.3-28.9-28.3-50.4c0,0,1.6,58.7,17.3,63.4c15.7,4.7,45.4-12.6,45.4-12.6l-1-4.8
		C585.1,394.7,572.6,400.1,561.7,396.8z"/>
	<path class="st24" d="M598.2,398.5c0,0.4-5-10.8-5-10.8l-9.9,0.7l1.1,7.3l3,0.1l-3.6,2.1l3.8,6.1L598.2,398.5z"/>
	<path class="st16" d="M510.7,340.1c-15.5,19.7-10.6,46.3-6.9,58.9c3.6,12.7-2.2,38.2,7.5,49.5c0,0,14-15.4,23.8-14.1
		c9.8,1.3,12.2,6.3,14.8,4.1c2.6-2.2-0.7-32.9,0.9-41.3c1.6-8.4-0.8-31.2-11.7-44.5C528.1,339.6,510.7,340.1,510.7,340.1z"/>
	<path class="st55" d="M508.6,350.1c-0.9,0.1-1.9,0.3-2.7,0.7c-0.8,0.4-1.6,1-2.2,1.7c-6.6,17.3-2.9,36.4,0.1,46.6
		c3.7,12.7-2.2,38.2,7.5,49.5c0,0,6.8-7.5,14.2-11.5c0.8-7.6,1.2-15.3,1.2-22.9C526.6,378.7,518.6,350.1,508.6,350.1z"/>
	<path class="st56" d="M521.4,325c-10.4-16.3-6-22.9-6-22.9s-5.6-8.5,0.1-16.6c0,0,0.5-12,14.9-14.7c0,0,9.5-10.3,17-4.3
		c0,0,8.8-7,13,6.7c4.2,13.7-1.1,13.6-1.1,13.6s8.3,17.7-5.1,22.1C541,313.1,521.4,325,521.4,325z"/>
	<path class="st57" d="M553.4,308.9c0,0-10.2-0.5-13.3-9.9c0,0-9.4-7.5-3.1-20.7c0,0-1.6-8.3,2.1-13.2c-3.3,1.2-6.2,3.1-8.7,5.7
		c-14.4,2.7-14.9,14.7-14.9,14.7c-5.7,8.1-0.1,16.6-0.1,16.6s-4.4,6.6,6,22.9C521.4,325,540.1,313.6,553.4,308.9L553.4,308.9z"/>
	<path class="st24" d="M531.2,344.3l-20.5-4.1c16.1,7.7,31.5,21.9,31.5,21.9S536.9,347.8,531.2,344.3z"/>
	<path class="st23" d="M510.7,340.1l14.9-36.8l13,17.5l-5.5,26.2L510.7,340.1z"/>
	<path class="st58" d="M621.8,327.5l-32.4,60.7l-52.9,4.7l0.2,1h72.2l36.8-60.5L621.8,327.5z"/>
	<path class="st59" d="M589.3,388.2l-52.9,4.7l0.2,1h72.2l-16.5-2.4L589.3,388.2z"/>
	<path class="st60" d="M536.7,393.9h72.2l-16.5-2.4L536.7,393.9z"/>
	<path class="st9" d="M628.7,329.2l-36.5,62.3l16.6,2.4l36.8-60.5L628.7,329.2z"/>
	<path class="st61" d="M628.7,329.2l-19.9,64.7l36.8-60.5L628.7,329.2z"/>
	<path class="st55" d="M504.4,402c2.2,13.2-2.1,35.7,6.6,46.3c6.5-27.3,17-36.7,39.4-34.7c-0.3-5.1-0.2-10.2,0.2-15.3
		C538.2,396.5,517.4,395.1,504.4,402z"/>
	<path class="st16" d="M523.7,390.7c-1.6-24.6-9.2-51.7-13.3-50.3c-4.9,1.6-13,11.9-14.4,26.7c-1.3,13.5,7.9,43.6,14.7,49.1
		c6.8,5.5,45.5-22,55.8-26.5l1.9-11.2C554,378.2,535.7,384.1,523.7,390.7z"/>
	<path class="st54" d="M526.5,389.2c12.1-5.1,28-8.9,40.5-7.9l-1.9,9c0.5-0.2,0.9-0.4,1.3-0.6l1.9-11.2
		C555.1,378.2,538.5,383.2,526.5,389.2z"/>
	<path class="st54" d="M514.6,407.1c-6.8-5.5-14.7-38.9-13.4-52.4c0.2-2.3,0.6-4.6,1.2-6.8c-3.7,5.8-5.9,12.4-6.6,19.3
		c-1.3,13.5,6.6,46.9,13.4,52.4c6.8,5.5,46.9-25.2,57.1-29.7l1.2-6.9C553.6,390.5,520.7,412,514.6,407.1z"/>
	<path class="st62" d="M570.3,595.2h-14.4c0,0-2-3.6,1-5C560.7,588.2,570.3,595.2,570.3,595.2z"/>
	<path class="st62" d="M543.2,595.2h-8.1l-3.6-11.1c0,0,3.4-6.1,5.1-2.9c1.1,2,0.4,8,0.4,10.5C539,593,541.1,594.2,543.2,595.2z"/>
	<path class="st45" d="M388.5,363.9c-2.1,6.5,13.6,18.9,17.6,20.6l-11.8,2.8l-11.9-17.5l0.9-10.1L388.5,363.9z"/>
	<path class="st63" d="M401,387.7c-12.3-7-16.4-18.9-17.6-28l-45.6,210c1.9,10.6,6.5,19.3,15.5,25L401,387.7z"/>
	<g>
		<path class="st24" d="M459.2,437.7h-17.5l-2.1,139.8h19.5L459.2,437.7z"/>
	</g>
	<g>
		<path class="st24" d="M442.4,351.3h17.5l1.3-6.5h-19.5L442.4,351.3z"/>
	</g>
	<g>
		<path class="st24" d="M442.4,365.4h17.5l1.3-6.5h-19.5L442.4,365.4z"/>
	</g>
	<path class="st22" d="M582.2,380.3c0.3,3.4-0.5,5.5-1.2,5.9c-0.8,0.4-3.3-0.9-3.7-1.9C576.7,383.2,581.9,377.3,582.2,380.3z"/>
	<path class="st23" d="M581.3,378.3c-0.2,6.4-0.8,6.9-1.8,7.5c-1,0.6-3.9-0.2-4.3-1.2c-0.3-1,0.2-3.5,1-3.3c0.6,0.1,1.2,0.2,1.7,0.3
		L581.3,378.3z"/>
	<path class="st23" d="M578.8,376.5c-1.3-2.6-11.6-2.4-17,2.7l3.4,9.2c4.7-2,8.8-5.6,11.8-5.3C579.8,383.3,580.1,379.1,578.8,376.5z
		"/>
	<path class="st23" d="M577.6,379.7c-0.2,6.4-0.9,6.9-1.8,7.5c-0.9,0.6-3.9-0.2-4.3-1.2c-0.3-1,0.2-3.5,1-3.3
		c0.6,0.1,1.2,0.2,1.7,0.3L577.6,379.7z"/>
	<path class="st23" d="M576.7,375.2c2.7,0.5,5.2,1.9,7,4c1.2,2,2.1,4.3,2.6,6.6c0.1,0.9-1.9,2.1-2.3,0.9c-0.4-1.3-1.7-4.9-2.1-5
		c-0.4-0.1-3.9-2-4-2C577.4,378.2,577,376.7,576.7,375.2z"/>
	<path class="st24" d="M568.3,389.4c0,0.4-5-12.7-5-12.7l-9.9,0.8l1.1,8.6l3,0.1l-3.6,2.4l3.8,7.1L568.3,389.4z"/>
	<path class="st24" d="M509.2,340.6l2.9-4.7l22.5,8.4l-1.4,4.3L509.2,340.6z"/>
	<g class="st12">
		<path class="st13" d="M534.3,347.1c-0.2-0.2-0.3-0.4-0.5-0.5l0.7-2.3l-0.8-0.3l2.5-11.8c-3.7-7-8.9-14-14.7-18.6l-9.1,22.5
			l-0.3-0.1l-2.9,4.7l0.4,0.1c-2,1-4.5,3.3-6.8,6.7c12.9-0.5,30.9,12.4,37.4,8.4c0.5-0.3,0.9-0.7,1.2-1.3
			C539.2,351.9,536.9,349.4,534.3,347.1z"/>
	</g>
	<path class="st23" d="M528,292.6c-5,12.3-7.6,25.5-7.7,38.7c0.1,1.4,12.7,10.7,17,11.6c0,0,15.3-19.4,18.5-35.7
		c3.2-16.2-0.9-20.3-5.8-21.3C545.2,285,531.1,285.1,528,292.6z"/>
	<path class="st57" d="M525.8,317.5c10.7-25.6,13.7-37.9,4.6-33.2c-9.1,4.7-8.5,29.5-8.5,29.5L525.8,317.5z"/>
	<path class="st23" d="M525.7,309c0.3-6-6.5-11.5-7.7-5c-1.2,6.5,2.9,16.2,4.5,14.2C524.1,316.3,525.6,311,525.7,309z"/>
	<path class="st37" d="M524.3,309.3c0.2-3.8-4.1-7.2-4.9-3.1c-0.8,4.1,1.8,10.2,2.8,8.9C523.3,313.3,524,311.3,524.3,309.3z"/>
	<path class="st23" d="M523.6,311.9c0.1-2.5-2.7-4.7-3.2-2c-0.5,2.7,1.2,6.7,1.8,5.9C522.9,314.5,523.4,313.2,523.6,311.9z"/>
	<path class="st64" d="M551.3,311.7c0.7-1.6,0.5-3.3-0.4-3.6c-0.9-0.3-2.3,0.7-3,2.4c-0.7,1.7-0.5,3.3,0.4,3.6
		C549.3,314.4,550.6,313.4,551.3,311.7z"/>
	<path class="st23" d="M544.4,306.4c1.4-0.5,2.1,17.1,1.2,19.1c-0.4,1-6.4-2.3-6.4-2.3S544.2,306.5,544.4,306.4z"/>
	<path class="st40" d="M544.9,307.1c0.6,3.8,1.3,16.5,0.5,18.1c-0.3,0.7-4.1-1.1-5.6-2l-0.2,0.6c0,0,6.3,3.8,6.7,2.9
		C547.1,324.7,546,308,544.9,307.1z"/>
	<path class="st64" d="M541.4,307.5c0.8-1.6,0.8-3.2-0.1-3.6c-0.9-0.4-2.3,0.5-3.2,2.1c-0.9,1.6-0.8,3.2,0.1,3.7
		C539.1,310.1,540.5,309.1,541.4,307.5z"/>
	<path class="st56" d="M549.8,295.8c-0.5-1.4-8.9-1.9-10.9-1.7c-2.1,0.2-2.5,1.7-2.6,3.3c-0.1,1.6,8.7,5,11.8,3.2
		c0.7-0.6,1.2-1.3,1.5-2.2C549.9,297.6,550,296.7,549.8,295.8z"/>
	<path class="st56" d="M551.4,303.4c-0.3,2.8,4.4,4.2,5.5,3c1.1-1.2,2.1-2.4,1.6-3.6c-0.5-1.2-3.5-4.9-4.7-4.2
		C552.6,299.4,551.5,302.1,551.4,303.4z"/>
	<path class="st40" d="M535.5,330.8c0.1-0.3-0.6-1-1.6-1.6c-1-0.6-2-0.8-2.1-0.5c-0.2,0.3,0.6,1,1.6,1.6
		C534.4,330.8,535.4,331.1,535.5,330.8z"/>
	<path class="st40" d="M530.3,322.6l0.3-0.5c2.6,3.8,4.5,6,10.5,9c-0.2,0.1-0.4,0.3-0.6,0.5C536.9,330.2,530.9,325.3,530.3,322.6z"
		/>
	<path class="st22" d="M612.3,391.6c2.9-3.1,5.3-9.4,4.6-11.6c-0.7-2.2-2.6-1.4-3.2-0.4c-0.6,0.9-1.2,7.9-1.6,9.5
		C612,389.9,612,390.8,612.3,391.6z"/>
	<path class="st22" d="M610.2,394.6c2.4-2.3,3.8-7,2.7-8.6c-0.2-0.3-0.4-0.5-0.6-0.7c-0.3-0.2-0.6-0.3-0.9-0.3c-0.3,0-0.7,0-1,0.1
		c-0.3,0.1-0.6,0.3-0.8,0.6c-0.4,0.7,0.1,5.9,0,7.1c0,0.3,0,0.7,0.1,1C609.8,394,610,394.3,610.2,394.6z"/>
	<path class="st65" d="M194,401.5h107.3l15.2,193.7H195.3L194,401.5z"/>
	<path class="st66" d="M204.8,509.1l40.3-107.6h16.8l-6.5,19.4l5.9-1.2l5.3,95.3h18.6l9.9,37.4h7.9l7.1,23.7l3,18.8H194L204.8,509.1
		z"/>
	<g class="st67">
		<g class="st67">
			<path class="st68" d="M198,408.2l95.8-0.9l10.6,180.6l-105.3,0.6L198,408.2z M292.4,408.9l-92.9,0.9l1.1,177.2l102.2-0.6
				L292.4,408.9z"/>
		</g>
	</g>
	<path class="st69" d="M300.7,401.5h27.1l11.8,193.7h-28.4L300.7,401.5z"/>
	<g class="st70">
		<path class="st68" d="M311.8,431.2h13.3l8.2,136.7h-13.9L311.8,431.2z"/>
	</g>
	<path class="st66" d="M302.9,401.5l10.4,193.7h-4l-10.5-193.7H302.9z"/>
	<path class="st27" d="M192.2,489.7c-33.2,10.6-115.4,24.4-115.4,24.4l0.5,1.4H205L192.2,489.7z"/>
	<path class="st71" d="M199.9,502.8l5.1,12.7H77.2l0-0.1L199.9,502.8z"/>
	<path class="st24" d="M197.7,471.1c26.1-15.4,28.3-19,32.9-28.6c4.6-9.6,8.5-29.4-1.4-30c-10-0.6-27.8,32.7-35.5,32
		C185.9,443.8,183.3,479.6,197.7,471.1z"/>
	<path class="st72" d="M191.5,444.8c1.6,3.1,7.8,6.3,11.3,2.8c14.6-14.5,16.5-27.9,24-31.8c0.8-0.4,7.1,0.6,7.5-0.4
		c3,6.2-0.1,19.3-3.6,26.5c-4.6,9.6-6.8,13.2-32.9,28.6C184.8,478.1,185.6,450.1,191.5,444.8z"/>
	<path class="st24" d="M220,422.1c5.7-10.4,13.3-14.5,13.3-14.5s20.6-6.4,27.4,10.9c6.8,17.3-16.4,71-20.4,81.1
		c-4,10-8.4,13.4-30.9,11.7l-19-20.6C211.8,473.6,216.3,428.9,220,422.1z"/>
	<path class="st72" d="M209.3,460.4c-1.5,11.6,11.6,23.5,16.5,23.1c7.8-0.6,18.2-29.7,26.6-54.3c2.1-5.8,3.3-11.8,3.6-17.9
		c2.1,2,3.7,4.4,4.7,7.1c6.8,17.4-16.4,71-20.4,81.1c-4,10-8.4,13.4-30.9,11.7l-19-20.6C199.2,483.7,205.1,472.1,209.3,460.4z"/>
	<path class="st73" d="M211.6,438.6l-35.8-3.5l-35.8,5.6l37.4,2.1l34.4-2.9L211.6,438.6z"/>
	<path class="st74" d="M170.4,436l5.4-0.8l35.8,3.5l0.2,1.3l-5.4,0.5L170.4,436z"/>
	<path class="st24" d="M166.7,378.6l9.1,56.5l-35.8,5.6l-11.7-50.4L166.7,378.6z"/>
	<path class="st75" d="M166.7,378.6L140,440.8l-11.7-50.4L166.7,378.6z"/>
	<path class="st73" d="M163.7,379.5l3-0.9l9.1,56.5l-3.6,0.6L163.7,379.5z"/>
	<path class="st24" d="M233.8,472.4c22.4-20.4,23.9-22.5,26.5-32.8c2.6-10.3,2.3-30.5-7.5-29.1c-9.8,1.4-20.4,36.1-28.1,37
		C217,448.4,221.4,483.7,233.8,472.4z"/>
	<path class="st72" d="M224.7,447.5c4.9-0.6,10.9-14.8,17.2-25.4c3.6-6.1-8.5,24.9-16.3,25.8c-6.1,0.7-4.6,22.6,2.3,26.5
		C220.2,472,218.4,448.3,224.7,447.5z"/>
	<path class="st72" d="M233.7,456.6c22.4-20.4,23.8-24.4,26.4-34.7c0.2-1,0.5-2.1,0.7-3.2c1.5,6.4,0.9,15.2-0.5,20.9
		c-2.6,10.3-4,14.3-26.4,34.7c-10.6,9.6-15.4-16.1-11.7-24.3C224.1,456.9,228.1,461.7,233.7,456.6z"/>
	<path class="st22" d="M193.1,445.9c-13.7-5.3-42-4.4-42-4.4l3.6,5c0,0,32.8,27.6,40.7,24.6C203.6,467.9,198.6,448,193.1,445.9z"/>
	<path class="st23" d="M234.1,446.1C226.6,433.3,210,422,210,422l-7.5,5.2c0,0,17.3,46.3,25.1,48.1
		C235.4,476.9,237,451.2,234.1,446.1z"/>
	<path class="st22" d="M227.7,459.5c3.7,0.8,6-4.7,7.1-11.1c1.8,7.9-0.3,28.4-7.3,26.8c-7.8-1.7-25.1-48.1-25.1-48.1
		S222.5,458.4,227.7,459.5z"/>
	<path class="st76" d="M199.1,343.6c0,0-0.1,0.7-0.3,1.9C198.9,344.8,199,344.2,199.1,343.6z"/>
	<path class="st56" d="M198.9,345.4c0,1.2,0.3,2.4,0.8,3.4c1.4,2.8,9,3.9,5.3-8.4c-3.6-12.3,6.8-13.9,6.8-13.9s-6.7,5.8,1.1,9
		c7.7,3.2,4-6.9,11.9-8.1c7.9-1.2,10.3,10.7,10.3,10.7s3.2-7.4,14.2-3.2c11,4.2,3.9,13,3.9,13s10.4,1.8,11.1,15.5
		c0.7,13.7-6.8,8.6-6.8,8.6c1.2,8.4-6,12.3-6,12.3s-1.9,3.5-3.2,12.5L216.9,368C197,373.5,198.1,352,198.9,345.4z"/>
	<path class="st57" d="M221.3,363.7c14-6.6,27-14.7,24.3-28.6c-0.1-0.4-0.2-0.8-0.3-1.2c1.4,0.2,2.7,0.6,4,1.1
		c11.1,4.2,3.9,13,3.9,13s10.4,1.8,11.1,15.5c0.7,13.7-6.8,8.6-6.8,8.6c1.2,8.4-6,12.3-6,12.3s-1.9,3.5-3.2,12.5L216.8,368
		c-10.4,2.9-15.1-1.7-17-7.6C204.1,366.4,207.9,370,221.3,363.7z"/>
	<path class="st23" d="M244.9,379.8l7,28.7c-7.1,1.1-13.6,4.9-19.3,11.3l-3.3-30.8L244.9,379.8z"/>
	<path class="st27" d="M173.4,443.8l8.5-3.8c18.3,4.9,47.7,64.7,47.7,64.7s-7.5,10.6-15.9,10.6h-21.3l-11-51.3l-22.7,49.5l-1.9-0.7
		C156.8,512.7,169,454.1,173.4,443.8z"/>
	<path class="st71" d="M182.5,447.1c0,0,11.4,7.1,20.9,13.3c13.8,19,26.3,44.4,26.3,44.4s-7.5,10.6-15.9,10.6h-21.3l-11-51.3
		l-22.7,49.5l-1-0.4L182.5,447.1z"/>
	<path class="st77" d="M283.4,516.4h-91.9c-16.3,0-20.9,34.7-4.7,34.7h91.9C270.4,546.4,271.6,521.9,283.4,516.4z"/>
	<path class="st16" d="M192.9,514.7h-93c-18.5-0.6-20.5,37.5-2,38.1h93C175,552.3,177,514.2,192.9,514.7z"/>
	<path class="st16" d="M284.2,514.7h-182l-0.8,3.6h182c0.5,0,1.1-0.2,1.5-0.5c0.4-0.3,0.8-0.8,0.9-1.3c0-0.2,0-0.5,0-0.7
		c-0.1-0.2-0.2-0.4-0.3-0.6c-0.2-0.2-0.4-0.3-0.6-0.4C284.7,514.7,284.5,514.7,284.2,514.7z"/>
	<path class="st16" d="M282.4,549.6H100.7l-0.8,3.1h181.7c0.5,0,1-0.1,1.5-0.4c0.4-0.3,0.8-0.7,1-1.2
		C284.3,550.3,283.5,549.6,282.4,549.6z"/>
	<path class="st78" d="M285,514.7h-97.1l-0.4,3.6h97.1c0.6,0,1.2-0.8,1.3-1.8C286,515.5,285.6,514.7,285,514.7z"/>
	<path class="st78" d="M284,549.6h-96.9l-0.4,3.1h96.9c0.6,0,1.2-0.7,1.3-1.6C285,550.3,284.6,549.6,284,549.6z"/>
	<path class="st78" d="M197.1,517.5h-93c-18.5-0.5-20.5,32-2,32.4h93C172.6,548.5,174.6,516,197.1,517.5z"/>
	<path class="st7" d="M194.6,518.7l-82.1,0.4c-16.5-0.4-18.4,29.9-1.8,30.3h83.2C179.7,549,180.4,518.3,194.6,518.7z"/>
	<path class="st24" d="M183,522.8h-65.3c-13-0.3-14.4,22.6-1.4,22.9h65.3C170.4,545.4,171.9,522.5,183,522.8z"/>
	<path class="st34" d="M208.8,552.1H77.5c-8.1,0-8.2,43.1-0.1,43.1h131.3C198.2,595.2,198.3,552.1,208.8,552.1z"/>
	<path class="st7" d="M303.1,557.2H209c-16.7,0-16.7,32.9-0.1,32.9h94.2C293.9,585.7,291.8,562.4,303.1,557.2z"/>
	<path class="st24" d="M231.1,583.6c-12.9,0-12.8-19.8,0.1-19.8h66c-2.6,5.9-2.1,14,0.4,19.8H231.1z"/>
	<path class="st79" d="M302.2,552.1H193.6v7.6h108.6c1.4,0,2.5-1.7,2.5-3.8C304.7,553.8,303.6,552.1,302.2,552.1z"/>
	<path class="st79" d="M302.1,587.6H193.6v7.6h108.5c1.4,0,2.5-1.7,2.5-3.8C304.6,589.3,303.5,587.6,302.1,587.6z"/>
	<path class="st79" d="M208.7,595.2h-18.1c-6.2-8.1-6.2-34.9,0.1-43.1h18.1C198.3,552.1,198.2,595.2,208.7,595.2z"/>
	<g>
		<g>
			<path class="st7" d="M83,573.8c0-8.2,1.3-17.7,5.1-17.7h93.6v1.6c-2.8,0-5,6.9-5,16.1c0,9.2,2.1,15.9,4.9,15.9v1.6H88
				C84.3,591.2,83,581.9,83,573.8z M175.3,573.8c0-6.6,1.1-13.2,3.5-16.1H88.1c-2,0-3.7,7.2-3.7,16.2c0,9.9,1.8,15.8,3.6,15.8h90.7
				C176.4,586.8,175.3,580.3,175.3,573.8L175.3,573.8z"/>
		</g>
	</g>
	<path class="st80" d="M141.5,514.6h17.9c0,0,2.5-2.9-0.7-4.5C155.6,508.5,141.5,514.6,141.5,514.6z"/>
	<path class="st80" d="M66.9,501.1l8.4,15.8c0,0,3.7,0.9,3.6-2.7C78.9,510.6,66.9,501.1,66.9,501.1z"/>
	<g class="st12">
		<path class="st13" d="M232.6,432.6c-6.8-1.5-9.1-8.7-9.2-17.7c1-0.8,2.2-1.5,3.4-2c1.4-1.5,3-2.9,4.7-4.1l-2.1-19.9l15.6-9.1
			l7,28.7h-0.1c1.2,0.6,2.3,1.3,3.4,2.1c2.1,0.6,3.6,2.4,4.6,4.9C249.1,417.7,242.4,434.7,232.6,432.6z"/>
	</g>
	<path class="st23" d="M242.3,356.9c5.2,21,1.9,41.1,1.9,41.1s-14.2,8.6-23,8.8c0,0-8.1-33.6-4.9-46.9
		C219.5,346.6,241.3,352.7,242.3,356.9z"/>
	<path class="st57" d="M240.4,386.3c-1.6-18.8-2.8-31,3-28.2c5.7,2.8,3.8,24,3.8,24L240.4,386.3z"/>
	<path class="st81" d="M217.3,376.6c-0.2-1.3,0.2-2.4,0.8-2.5c0.6-0.1,1.2,0.9,1.4,2.2c0.1,1.3-0.2,2.4-0.8,2.5
		C218.1,378.9,217.5,377.9,217.3,376.6z"/>
	<path class="st81" d="M227.1,375.3c-0.1-1.3,0.2-2.4,0.8-2.5c0.6-0.1,1.2,0.9,1.4,2.2c0.1,1.3-0.2,2.4-0.8,2.5
		C227.8,377.6,227.2,376.6,227.1,375.3z"/>
	<path class="st24" d="M210,377.6l2.7,9.6l21.1-2.2l0.5-8.7l15.5-2.3l3.7,4.7l3.1-2.8l-4.9-3.5L210,377.6z"/>
	<path class="st23" d="M217.7,377.9l-6.4,0.9l2,7.2l4.7-0.7L217.7,377.9z"/>
	<path class="st23" d="M217.7,377.7l-6.4,0.9l2,7.2l4.7-0.7L217.7,377.7z"/>
	<path class="st82" d="M217.8,385.1l-1.6,0.2l-4.7-6.8l2-0.3L217.8,385.1z"/>
	<path class="st23" d="M244.1,376c1.8-5,8.8-3.9,7.6-0.2c-1.2,3.7-6.4,10.6-7.8,9.5C242.5,384.2,243.7,377.4,244.1,376z"/>
	<path class="st23" d="M218.8,378.9c-0.2-0.1-3.3,12.8-3.5,13.9c-0.2,1.1,7.3-1.1,7.3-1.1S219.4,379.3,218.8,378.9z"/>
	<path class="st37" d="M245.5,377.4c1.1-2.9,5.1-2.2,4.4-0.1c-0.7,2.1-3.7,6.1-4.5,5.4C244.6,382.1,245.2,378.2,245.5,377.4z"/>
	<path class="st23" d="M245.3,380c0.7-1.8,3.2-1.4,2.8-0.1c-0.4,1.4-2.3,3.9-2.8,3.5C244.7,382.9,245.1,380.5,245.3,380z"/>
	<path class="st23" d="M219.9,377.6l2.2,7.8l10.1-1.3l0.6-7.9L219.9,377.6z"/>
	<path class="st82" d="M221.2,377.5l4.3-0.5l6.5,7.1l-4.2,0.5L221.2,377.5z"/>
	<path class="st22" d="M218.8,378.9c0.3,0.4,0.4,0.9,0.6,1.3c-1,3.7-2.7,10.9-2.8,11.7c-0.1,0.9,3.7-0.1,5.9-0.7
		c0.1,0.3,0.1,0.5,0.1,0.5s-7.5,2.3-7.3,1.1C215.5,391.7,218.6,378.8,218.8,378.9z"/>
	<path class="st81" d="M215.8,380.5c-0.7,0.1-1.3-0.9-1.7-2.2l2.9-0.4C217,379.4,216.5,380.5,215.8,380.5z"/>
	<path class="st81" d="M227.6,379.9c-0.8,0.1-1.6-1.2-1.8-3l3.2-0.4C229,378.4,228.4,379.8,227.6,379.9z"/>
	<path class="st56" d="M236,370.9c-4.5,0.1-9.1-0.2-13.5-1l-0.5-5.7c0,0,12.3,2.1,13.4,3.2C236.4,368.5,236,370.9,236,370.9z"/>
	<path class="st56" d="M212.7,372.4c2.7-0.3,5.3-1.1,7.7-2.3l-0.5-5.7c0,0-6.8,3.3-7.3,4.4C212.4,370.1,212.4,371.3,212.7,372.4z"/>
	<path class="st83" d="M221.4,394l11.3-3.1c0,0,0.5,6.9-5.1,8C221.9,400.1,221.4,394,221.4,394z"/>
	<path class="st84" d="M222.8,396c-0.3-0.6-0.5-1.3-0.6-2l9.7-2.6c0,0.7,0,1.5-0.2,2.2L222.8,396z"/>
	<path class="st73" d="M149.2,414.5c1.4-0.2,2.2-2.5,1.8-5c-0.2-1.1-0.6-2.2-1.3-3.1c0.6,0.5,1.1,1,1.5,1.7c0.4,0.7,0.6,1.4,0.7,2.2
		c0.4,2.5-0.4,4.7-1.8,5c-0.4,0-0.8-0.1-1.1-0.2c-0.4-0.2-0.7-0.4-0.9-0.8C148.4,414.5,148.8,414.6,149.2,414.5z"/>
	<path class="st74" d="M147.9,403.8c1.4-0.2,2.8,1.1,3.7,3.1c-0.9-1.3-2-2-3-1.9c-1.9,0.3-3,3.4-2.4,7c0.2,1,0.4,1.9,0.9,2.8
		c-0.8-1.2-1.3-2.6-1.5-4C144.9,407.3,146,404.1,147.9,403.8z"/>
	<path class="st22" d="M186.8,423.7c-0.4,3.1,0.6,5.1,1.5,5.5s3.9-0.8,4.4-1.8C193.1,426.3,187.1,420.9,186.8,423.7z"/>
	<path class="st23" d="M187.7,421.8c0.3,5.9,1,6.4,2.1,6.9c1.2,0.5,4.6-0.2,5-1.1c0.4-0.9-0.3-3.2-1.2-3c-0.7,0.1-1.4,0.2-2,0.3
		L187.7,421.8z"/>
	<path class="st23" d="M190.7,420.1c1.6-2.4,13.6-2.3,19.9,2.4l-6.5,6.5c-2.1-3.5-7.7-3.2-11.2-2.9
		C189.5,426.5,189.2,422.5,190.7,420.1z"/>
	<path class="st23" d="M190.2,423c0.3,5.9,1,6.4,2.1,6.9c1.1,0.5,4.6-0.2,5-1.1c0.4-0.9-0.3-3.2-1.2-3c-0.7,0.1-1.4,0.2-2,0.3
		L190.2,423z"/>
	<path class="st23" d="M193.2,418.9c-4,0.8-6.9,2.3-8.2,3.7c-1.4,1.8-2.4,3.9-3.1,6.1c0,0.9,2.2,1.9,2.7,0.8c0.5-1.1,2-4.5,2.4-4.6
		c0.4-0.1,4.5-1.9,4.7-1.9C192.4,421.7,192.8,420.3,193.2,418.9z"/>
	<path class="st22" d="M158.5,449.3c-9-3.9-13.8-2.1-16-8.4l13.6,0.5L158.5,449.3z"/>
	<path class="st22" d="M148.2,444.1c-1.1-0.5-2-1.3-2.7-2.3c-0.7-1-1-2.2-1.1-3.4c0-1.6-2.4-2-2.5-0.5c0,1.5,0.4,3,1.2,4.3
		C143.8,443.2,148.2,444.1,148.2,444.1z"/>
	<path class="st22" d="M151.6,444.3c-1.1-0.5-2-1.3-2.7-2.3c-0.7-1-1-2.2-1.1-3.4c0-1.6-2.4-2-2.5-0.5c0,1.5,0.4,3,1.2,4.4
		C147.2,443.5,151.6,444.3,151.6,444.3z"/>
	<path class="st22" d="M155.2,444.7c-1.1-0.5-2-1.3-2.7-2.3c-0.7-1-1-2.2-1.1-3.4c0-1.6-2.4-2-2.5-0.5c0,1.5,0.4,3,1.2,4.4
		C150.8,443.8,155.2,444.7,155.2,444.7z"/>
</g>
</svg>
