<svg width="450" height="150" viewBox="0 0 450 150" fill="none" xmlns="http://www.w3.org/2000/svg">
<path d="M11.084 84.8459C11.5481 85.8434 15.4628 91.9078 15.6992 93.2231C15.8773 96.3337 17.2387 99.2552 19.5 101.38C23.1958 105.149 28.1175 120.191 28.1175 120.191L24.9911 149.365H49.1095C48.5228 134.844 48.1287 123.766 48.2338 123.245C48.6366 121.665 47.5507 117.692 47.2091 116.386C46.8676 115.08 48.5753 110.074 48.9606 108.874C49.346 107.673 52.306 102.253 52.7527 100.629C54.0579 97.3716 55.8962 94.3579 58.1912 91.7136C60.4419 89.3479 63.8486 85.7728 66.073 83.5395C68.2974 81.3062 67.772 80.238 67.1152 79.523C66.4583 78.808 63.9274 79.8408 63.0516 81.0413C62.1759 82.2418 58.0773 85.455 56.5798 86.6026C55.0822 87.7501 52.6739 88.6593 52.0433 88.368C51.4128 88.0767 53.7948 83.6454 54.1889 82.7803C54.583 81.9152 57.2979 77.7929 57.4993 77.0337C57.7007 76.2746 61.0023 71.0488 63.0078 67.8974C65.0133 64.7461 65.2235 62.7687 63.2443 61.7183C61.2651 60.6678 58.7166 65.2492 57.9897 66.6439C57.2629 68.0387 53.0942 73.238 51.8069 75.3477C50.5195 77.4574 47.8309 81.4474 47.8309 81.4474C47.8309 80.3263 49.959 73.953 51.5179 70.0513C53.0767 66.1496 56.6148 60.3765 57.7971 58.3374C58.9793 56.2983 58.6203 53.7384 56.4134 53.1911C54.2064 52.6438 49.9765 60.7561 49.1095 62.4686C48.2425 64.1811 45.7816 67.359 45.2474 69.3628C44.7132 71.3666 42.7603 78.9581 40.5358 78.5608C38.3114 78.1636 40.0717 69.195 40.1067 68.7802C40.1417 68.3653 40.6409 61.427 41.0788 59.2996C41.5167 57.1722 43.5046 51.611 40.2643 50.5782C37.024 49.5454 35.8242 56.7573 35.3426 58.7346C34.5352 62.6932 33.933 66.6916 33.5385 70.7133C33.3896 73.2644 32.5489 79.5142 31.5242 82.4449C30.4996 85.3756 27.9686 88.8182 25.0874 89.0301C22.2061 89.2419 18.3791 83.3806 17.5121 81.0855C16.6451 78.7904 14.6133 76.4952 12.2575 74.5444C9.9017 72.5936 7.68603 73.3615 6.79275 74.6239C5.89948 75.8862 8.34285 80.6176 8.98215 81.1561C9.62146 81.6946 10.6198 83.8573 11.084 84.8459Z" fill="#E2E2E2"/>
<path d="M74.5502 55.6095C74.9793 56.4923 78.6138 62.2036 78.8239 63.3864C78.9863 66.2675 80.2403 68.9757 82.327 70.9515C85.7512 74.4824 90.3139 88.3943 90.3139 88.3943L83.7895 149.347H111.218C110.106 123.66 108.792 92.0841 109.011 91.2279C109.388 89.7625 108.372 86.0815 108.066 84.8634C107.759 83.6452 109.327 79.0108 109.677 77.8986C110.027 76.7863 112.777 71.7194 113.18 70.2541C114.392 67.2382 116.097 64.4484 118.224 62.0005C120.309 59.8025 123.479 56.4923 125.493 54.4178C127.507 52.3434 127.061 51.3548 126.465 50.6927C125.87 50.0306 123.549 50.9928 122.743 52.1051C121.938 53.2173 118.119 56.148 116.736 57.2514C115.352 58.3548 113.11 59.167 112.532 58.8933C111.954 58.6197 114.178 54.4796 114.511 53.7028C114.844 52.926 117.401 49.0773 117.585 48.4064C117.769 47.7355 120.878 42.8452 122.7 39.9233C124.521 37.0015 124.749 35.1742 122.918 34.1679C121.088 33.1616 118.715 37.4782 118.084 38.7405C117.454 40.0028 113.548 44.8578 112.348 46.8087C111.148 48.7595 108.661 52.467 108.661 52.467C108.661 51.4254 110.64 45.5199 112.085 41.8742C113.777 38.1386 115.708 34.5176 117.865 31.0342C118.986 29.1451 118.627 26.7794 116.587 26.2674C114.546 25.7554 110.614 33.3293 109.808 34.8741C109.003 36.4189 106.726 39.4114 106.226 41.2651C105.727 43.1188 103.897 50.1719 101.848 49.8188C99.7984 49.4657 101.41 41.1239 101.445 40.7443C101.48 40.3647 101.944 33.9207 102.321 31.9169C102.697 29.9131 104.571 24.7844 101.567 23.8223C98.5636 22.8601 97.4514 29.56 97.0047 31.3961C96.2578 35.0603 95.6995 38.7609 95.332 42.4833C95.1919 44.849 94.4563 50.6486 93.4229 53.3674C92.3895 56.0862 90.1212 59.2817 87.4502 59.4759C84.7791 59.6701 81.2235 54.2325 80.4441 52.0786C79.6647 49.9247 77.7555 47.8238 75.5661 46.0142C73.3767 44.2046 71.3274 44.9196 70.4954 46.0848C69.6635 47.25 71.9404 51.6461 72.5272 52.1492C73.353 53.2056 74.0335 54.3695 74.5502 55.6095V55.6095Z" fill="#E2E2E2"/>
<path d="M128.804 85.8521C128.953 86.4259 129.925 89.8862 130.652 90.6277C131.379 91.3692 135.136 96.8068 135.451 98.0073C135.766 99.2078 137.991 102.421 138.358 103.648C138.726 104.875 143.35 115 143.377 116.66C143.377 117.383 142.86 132.549 142.264 149.365H162.994C161.172 137.324 159.902 125.699 160.83 120.747C163.099 108.591 165.919 108.247 166.733 106.146C167.548 104.045 171.112 97.7602 170.043 94.5823C169.173 91.3142 168.685 87.9546 168.59 84.5721C168.59 83.5128 167.714 80.7146 167.495 79.5582C167.276 78.4018 166.365 73.9528 163.913 74.7208C161.461 75.4888 160.515 77.8192 160.795 81.3943C161.076 84.9693 162.494 87.9706 162.346 88.8534C162.197 89.7361 162.197 93.267 160.506 92.1725C157.73 90.3187 157.275 86.8231 156.539 83.8218C155.191 78.3753 155.987 72.5581 155.348 66.988C154.989 63.872 154.472 56.7042 152.318 55.6626C150.164 54.6209 148.815 57.0926 149.06 59.6172C149.305 62.1418 149.936 68.1444 149.708 69.7863C149.481 71.4282 150.199 76.3362 150.024 77.8104C149.848 79.2845 149.463 81.9857 148.377 82.3035C147.291 82.6213 145.75 78.084 144.83 74.712C143.911 71.3399 142.203 64.2339 141.415 61.7534C140.627 59.2729 139.208 58.1695 137.859 58.8404C136.511 59.5113 137.08 63.4218 137.597 65.6639C137.959 68.1129 138.143 70.5852 138.148 73.0612C138.148 73.0612 136.861 64.6929 135.328 64.5605C133.796 64.4281 132.097 65.0902 132.342 67.4382C132.587 69.7863 134.093 76.0537 134.181 76.5304C134.269 77.0071 134.698 81.4384 135.468 82.9214C136.239 84.4044 137.973 90.1069 137.667 90.204C137.36 90.3011 134.68 88.4385 134.058 87.2468C133.208 85.4354 132.531 83.5467 132.035 81.6061C131.773 80.2732 130.949 77.422 129.233 77.6868C127.517 77.9516 128.13 79.7259 128.2 81.5532C128.274 83.0014 128.476 84.44 128.804 85.8521Z" fill="#E2E2E2"/>
<path d="M174.273 60.3146C176.564 63.0781 178.382 66.2077 179.65 69.5745C180.079 71.2428 182.987 76.8658 183.346 78.1017C183.705 79.3375 185.343 84.5103 184.966 85.8432C184.59 87.1762 183.381 91.2191 183.766 92.8433C183.968 93.7261 182.146 122.75 180.421 149.338H209.479L204.443 90.1422C204.443 90.1422 209.82 74.8709 213.682 71.0928C216.047 68.9658 217.511 66.005 217.772 62.8215C218.026 61.5239 222.151 55.3448 222.685 54.3296C223.219 53.3145 224.297 51.1076 224.962 50.578C225.628 50.0484 228.246 45.2816 227.353 43.931C226.46 42.5804 224.209 41.7771 221.757 43.728C219.305 45.6788 217.185 47.9475 216.222 50.3132C215.259 52.6789 211.23 58.5932 208.288 58.3108C205.345 58.0283 202.849 54.4267 201.825 51.4078C200.8 48.3888 200.073 41.9625 199.977 39.3408C199.665 35.217 199.139 31.1125 198.4 27.0443C197.954 25.014 196.885 17.5814 193.54 18.5701C190.195 19.5587 192.112 25.2965 192.515 27.4945C192.918 29.6925 193.268 36.8073 193.295 37.2046C193.321 37.6018 194.924 46.9147 192.638 47.2236C190.352 47.5326 188.496 39.7204 187.988 37.6901C187.48 35.6598 185.028 32.3142 184.178 30.5399C183.329 28.7656 179.169 20.3532 176.9 20.8299C174.632 21.3065 174.177 23.9547 175.368 26.0733C176.559 28.1919 179.992 34.1591 181.498 38.1844C183.005 42.2097 185.001 48.7772 185.001 49.9513C185.001 49.9513 182.374 45.7936 181.06 43.6044C179.747 41.4152 175.578 35.9511 174.93 34.5387C174.282 33.1263 171.751 28.3596 169.675 29.3835C167.6 30.4075 167.836 32.4643 169.781 35.7392C171.725 39.0142 175.035 44.4607 175.228 45.2375C175.42 46.0143 178.135 50.3132 178.494 51.2047C178.853 52.0963 181.209 56.6865 180.561 56.9778C179.913 57.2691 177.47 56.3158 175.955 55.0623C174.44 53.8088 170.315 50.4721 169.439 49.2274C168.563 47.9828 166.05 46.8617 165.367 47.5767C164.684 48.2917 164.167 49.3422 166.348 51.7167C168.528 54.0913 171.979 57.8341 174.273 60.3146Z" fill="#E2E2E2"/>
<path d="M209.137 80.9176C209.82 81.3942 211.055 83.4687 211.607 84.4485C212.159 85.4283 216.625 91.1308 216.967 92.3931C217.437 95.4722 219.06 98.2523 221.503 100.161C225.523 103.569 231.793 118.09 231.793 118.09L231.32 149.418H255.92C253.74 132.981 252.05 119.846 252.137 119.255C252.4 117.657 250.946 113.799 250.491 112.528C250.035 111.257 251.27 106.12 251.542 104.884C251.813 103.648 254.265 97.9808 254.563 96.3213C255.566 92.9597 257.12 89.791 259.161 86.9466C261.184 84.3779 264.258 80.5027 266.219 78.1193C268.181 75.7359 267.612 74.6766 266.894 74.0234C266.176 73.3702 263.802 74.6325 263.04 75.9125C262.278 77.1924 258.486 80.7145 257.094 82.0386C255.702 83.3627 253.398 84.4573 252.715 84.219C252.032 83.9807 254.046 79.3463 254.335 78.4547C254.624 77.5632 256.963 73.1583 257.112 72.4257C257.26 71.693 260.089 66.1318 261.762 62.8127C263.434 59.4936 263.513 57.5163 261.429 56.6335C259.345 55.7508 257.243 60.597 256.691 62.0182C256.139 63.4394 252.417 69.0801 251.323 71.2516C250.228 73.4231 247.925 77.7044 247.925 77.7044C247.846 76.5833 249.361 70.0423 250.552 66.0082C251.743 61.9741 254.686 55.945 255.702 53.8C256.717 51.6549 256.096 49.1479 253.854 48.8125C251.612 48.4771 248.135 56.9425 247.426 58.7256C246.716 60.5087 244.562 63.9073 244.212 65.9464C243.861 67.9855 242.583 75.7447 240.332 75.5682C238.081 75.3916 239.08 66.2024 239.08 65.7434C239.08 65.2843 238.939 58.3813 239.185 56.2186C239.43 54.0559 240.892 48.3358 237.573 47.6032C234.254 46.8705 233.72 54.1795 233.422 56.1922C232.981 60.1995 232.747 64.2273 232.722 68.2592C232.809 70.8191 232.529 77.0865 231.741 80.1319C230.953 83.1774 228.781 86.8142 225.926 87.2909C223.071 87.7676 218.727 82.2946 217.658 80.0525C216.59 77.8103 214.348 75.7624 211.826 74.0322C209.304 72.3021 207.167 73.2819 206.396 74.6148C205.626 75.9478 208.428 80.4409 209.137 80.9176Z" fill="#E2E2E2"/>
<path d="M264.827 43.3396C265.291 44.3459 269.206 50.4544 269.433 51.7256C269.618 54.8344 270.979 57.7534 273.234 59.882C276.93 63.6513 281.843 78.6843 281.843 78.6843L274.276 149.365H304.586C303.352 120.958 301.749 82.7272 301.959 81.7386C302.362 80.1673 301.276 76.195 300.934 74.8885C300.593 73.5821 302.301 68.577 302.686 67.3676C303.071 66.1583 306.031 60.7471 306.478 59.1317C307.781 55.873 309.62 52.859 311.917 50.2161C314.167 47.8504 317.574 44.2753 319.798 42.042C322.023 39.8087 321.489 38.7406 320.841 38.0255C320.192 37.3105 317.705 38.3433 316.83 39.5438C315.954 40.7444 311.855 43.9046 310.349 45.0962C308.843 46.2879 306.452 47.153 305.821 46.8617C305.191 46.5704 307.573 42.1303 307.958 41.274C308.343 40.4177 311.067 36.2777 311.277 35.5274C311.487 34.7771 314.824 29.5336 316.786 26.3823C318.747 23.2309 319.001 21.2624 317.022 20.2031C315.043 19.1438 312.486 23.7341 311.811 25.12C311.137 26.5059 306.916 31.714 305.629 33.8237C304.341 35.9335 301.653 39.9322 301.653 39.9322C301.653 38.8023 303.781 32.429 305.34 28.5361C306.898 24.6433 310.366 18.8879 311.575 16.8487C312.784 14.8096 312.398 12.2585 310.191 11.7112C307.984 11.1639 303.754 19.2763 302.887 20.9888C302.02 22.7013 299.56 25.8791 299.025 27.8829C298.491 29.8867 296.503 37.4606 294.252 37.0722C292.002 36.6838 293.78 27.6975 293.823 27.2827C293.867 26.8678 294.358 19.9383 294.795 17.8109C295.233 15.6835 297.221 10.1223 293.981 9.08067C290.741 8.03905 289.541 15.2598 289.059 17.246C288.25 21.1987 287.645 25.1911 287.246 29.207C287.097 31.767 286.248 38.0344 285.188 40.9386C284.129 43.8428 281.624 47.3207 278.751 47.5326C275.879 47.7444 272.034 41.8831 271.176 39.588C270.318 37.2929 268.277 35.0066 265.922 33.0469C263.566 31.0872 261.35 31.8729 260.457 33.1264C259.564 34.3798 262.007 39.129 262.646 39.6586C263.286 40.1882 264.363 42.3686 264.827 43.3396Z" fill="#E2E2E2"/>
<path d="M316.322 93.4882C316.479 94.1149 317.556 97.9019 318.362 98.7846C319.168 99.6673 323.31 105.617 323.661 106.941C324.011 108.265 326.463 111.858 326.866 113.12C327.269 114.383 332.383 125.664 332.409 127.482C332.409 128.074 332.103 137.192 331.682 149.348H352.175C351.352 141.8 351.037 135.445 351.685 132.011C354.19 118.576 357.307 118.205 358.201 115.883C359.094 113.562 363.017 106.614 361.861 103.11C360.899 99.5019 360.358 95.7928 360.25 92.0582C360.294 90.8929 359.304 87.8034 359.041 86.5234C358.779 85.2434 357.789 80.3443 355.092 81.1829C352.394 82.0215 351.335 84.6079 351.641 88.5537C351.948 92.4995 353.524 95.8098 353.393 96.7808C353.261 97.7518 353.226 101.689 351.361 100.444C348.296 98.405 347.796 94.5386 346.982 91.2372C345.502 85.217 346.378 78.7907 345.677 72.638C345.274 69.1953 344.74 61.2772 342.332 60.1297C339.923 58.9821 338.505 61.7186 338.732 64.5433C338.96 67.3681 339.696 73.9621 339.45 75.7717C339.205 77.5813 339.985 83.0101 339.792 84.599C339.599 86.188 339.179 89.2158 337.97 89.5688C336.762 89.9219 335.045 84.9168 334.056 81.1829C333.066 77.4489 331.175 69.619 330.29 66.8737C329.406 64.1284 327.847 62.9191 326.358 63.6606C324.869 64.4021 325.482 68.7187 326.069 71.1903C326.47 73.8964 326.675 76.6283 326.682 79.3644C326.682 79.3644 325.263 70.1222 323.564 69.981C321.865 69.8397 320 70.5636 320.271 73.1588C320.543 75.754 322.242 82.6659 322.303 83.1867C322.364 83.7075 322.872 88.6155 323.722 90.2485C324.571 91.8816 326.48 98.1932 326.148 98.2903C325.815 98.3874 322.846 96.3394 322.172 95.0241C321.227 93.0245 320.476 90.9374 319.93 88.792C319.641 87.3267 318.73 84.1753 316.838 84.4666C314.947 84.7579 315.612 86.7264 315.7 88.7391C315.767 90.3376 315.975 91.9269 316.322 93.4882V93.4882Z" fill="#E2E2E2"/>
<path d="M357.176 66.2027C359.437 68.9292 361.231 72.0171 362.483 75.339C362.903 76.9897 365.776 82.5333 366.135 83.7603C366.494 84.9873 368.105 90.0807 367.729 91.396C367.352 92.7112 366.17 96.6924 366.538 98.3078C366.73 99.1111 365.154 124.49 363.551 149.347H391.576L387.013 95.6684C387.013 95.6684 392.311 80.5737 396.13 76.8397C398.465 74.7456 399.908 71.8237 400.158 68.6832C400.412 67.4032 404.537 61.3124 405.01 60.3061C405.483 59.2997 406.595 57.1282 407.261 56.5986C407.926 56.0689 410.501 51.3022 409.616 50.0399C408.732 48.7775 406.516 47.9213 404.09 49.8457C401.664 51.77 399.554 54.0033 398.634 56.3338C397.715 58.6642 393.713 64.5079 390.805 64.2784C387.898 64.0489 385.445 60.4473 384.43 57.4725C383.414 54.4977 382.678 48.1508 382.608 45.5644C382.298 41.4969 381.778 37.4485 381.049 33.4356C380.611 31.4318 379.552 24.0875 376.259 25.0673C372.966 26.0471 374.849 31.7143 375.243 33.8946C375.637 36.075 375.987 43.0751 376.013 43.4988C376.04 43.9225 377.625 53.0412 375.365 53.3766C373.106 53.712 371.276 45.9969 370.776 43.9578C370.277 41.9187 367.86 38.6614 367.019 36.8959C366.179 35.1305 362.08 26.8504 359.838 27.3536C357.596 27.8567 357.158 30.4343 358.332 32.5264C359.505 34.6185 362.886 40.471 364.375 44.4698C365.863 48.4686 367.878 54.939 367.878 56.0778C367.878 56.0778 365.25 51.9819 363.989 49.8192C362.728 47.6565 358.586 42.263 357.929 40.8771C357.272 39.4912 354.785 34.7509 352.762 35.7925C350.739 36.8341 350.949 38.8291 352.867 42.0599C354.785 45.2907 358.043 50.6666 358.235 51.4257C358.428 52.1849 361.108 56.4397 361.458 57.3136C361.809 58.1875 364.094 62.6718 363.438 62.9719C362.781 63.272 360.39 62.3187 358.901 61.0829C357.412 59.847 353.34 56.5544 352.473 55.3274C351.606 54.1004 349.119 52.9882 348.453 53.6944C347.788 54.4006 347.271 55.4598 349.417 57.7814C351.562 60.103 354.96 63.7752 357.176 66.2027Z" fill="#E2E2E2"/>
<path d="M397.592 80.9091C398.021 81.7919 401.656 87.512 401.866 88.686C402.032 91.5662 403.285 94.2732 405.369 96.2511C408.793 99.782 413.356 113.694 413.356 113.694L409.538 149.365H433.183C432.456 131.896 431.896 117.119 432.045 116.527C432.421 115.071 431.405 111.381 431.099 110.172C430.792 108.962 432.36 104.319 432.71 103.207C433.061 102.095 435.81 97.0279 436.213 95.5537C437.425 92.5347 439.13 89.7419 441.258 87.2913C443.342 85.0933 446.512 81.7742 448.526 79.7086C450.541 77.643 450.094 76.6455 449.49 75.9835C448.886 75.3214 446.582 76.2748 445.777 77.387C444.971 78.4993 441.161 81.4388 439.769 82.5422C438.376 83.6456 436.143 84.4489 435.565 84.1753C434.987 83.9016 437.212 79.7616 437.544 78.9936C437.877 78.2256 440.434 74.3593 440.618 73.6972C440.802 73.0352 443.911 68.1448 445.733 65.223C447.554 62.3011 447.782 60.465 445.952 59.4675C444.121 58.47 441.748 62.769 441.118 64.0313C440.487 65.2936 436.581 70.1486 435.381 72.1083C434.182 74.068 431.747 77.7313 431.747 77.7313C431.747 76.6897 433.726 70.7754 435.171 67.1385C436.863 63.4056 438.794 59.7876 440.951 56.3073C442.072 54.4095 441.713 52.0437 439.673 51.5406C437.632 51.0374 433.7 58.6024 432.894 60.1472C432.088 61.692 429.811 64.6757 429.312 66.5382C428.813 68.4008 426.983 75.445 424.933 75.0919C422.884 74.7388 424.496 66.397 424.531 66.0086C424.566 65.6202 425.03 59.1939 425.406 57.1812C425.783 55.1686 427.657 50.0487 424.653 49.0954C421.649 48.142 420.537 54.8332 420.091 56.6604C419.344 60.3276 418.785 64.0312 418.418 67.7564C418.278 70.1221 417.542 75.9217 416.509 78.6317C415.475 81.3417 413.207 84.546 410.536 84.749C407.865 84.9521 404.309 79.5056 403.53 77.3517C402.75 75.1978 400.841 73.0969 398.652 71.2785C396.462 69.4601 394.413 70.1839 393.581 71.358C392.749 72.532 395.026 76.9192 395.613 77.4135C396.426 78.4834 397.092 79.6593 397.592 80.9091V80.9091Z" fill="#E2E2E2"/>
<path d="M141.519 88.9683C143.377 91.4302 144.816 94.1867 145.776 97.1247C146.073 98.5813 148.35 103.516 148.613 104.602C148.876 105.687 150.076 110.172 149.699 111.301C149.323 112.431 148.131 115.856 148.394 117.26C148.499 117.843 146.967 132.399 145.119 149.365H167.608L166.277 115.821C166.277 115.821 171.488 102.907 174.956 99.8171C177.07 98.087 178.441 95.6018 178.783 92.8788C179.055 91.7754 182.864 86.6379 183.328 85.8169C183.889 84.6835 184.596 83.6298 185.43 82.6832C186.026 82.2507 188.46 78.2695 187.742 77.069C187.024 75.8685 185.115 75.1005 182.943 76.6718C180.771 78.2431 178.836 80.1145 177.942 82.1094C177.049 84.1044 173.336 89.0212 170.814 88.6593C168.291 88.2974 166.312 85.1284 165.559 82.4802C164.821 79.0548 164.445 75.5603 164.438 72.0551C164.331 68.5111 164.039 64.9752 163.562 61.4623C163.256 59.6968 162.625 53.2705 159.718 53.9943C156.81 54.7182 158.229 59.7145 158.492 61.6123C158.754 63.5102 158.781 69.6276 158.789 69.9983C158.798 70.3691 159.805 78.3666 157.826 78.5697C155.847 78.7727 154.568 71.9756 154.209 70.1837C153.85 68.3917 151.888 65.4434 151.223 63.8986C150.557 62.3538 147.317 54.9565 145.355 55.3096C143.394 55.6627 142.894 57.8784 143.832 59.7233C145.656 63.1453 147.256 66.6837 148.622 70.3161C149.76 73.847 151.249 79.5583 151.197 80.5558C151.197 80.5558 149.069 76.8837 148.061 74.9505C147.054 73.0173 143.683 68.1622 143.14 66.9352C142.597 65.7082 140.652 61.4711 138.848 62.3009C137.044 63.1306 137.149 64.8696 138.691 67.7562C140.232 70.6427 142.859 75.4448 142.991 76.1245C143.122 76.8042 145.294 80.5911 145.566 81.3679C145.837 82.1447 147.685 86.1877 147.116 86.4084C146.546 86.629 144.488 85.7198 143.245 84.5899C142.001 83.46 138.586 80.4234 137.876 79.2935C137.167 78.1636 135.056 77.1308 134.443 77.7134C133.83 78.296 133.349 79.2141 135.126 81.3061C136.904 83.3982 139.68 86.7526 141.519 88.9683Z" fill="#35B1E3"/>
<path d="M182.269 42.6689C184.605 45.4751 186.458 48.6558 187.751 52.0789C188.18 53.7826 191.158 59.5203 191.526 60.7826C191.894 62.0449 193.558 67.3237 193.181 68.7272C192.804 70.1308 191.561 74.209 191.946 75.8686C192.191 76.9367 189.468 119.493 187.506 149.383H219.568L213.078 73.1409C213.078 73.1409 218.569 57.5342 222.51 53.6766C224.917 51.5067 226.409 48.4902 226.679 45.2465C226.942 43.9224 231.18 37.6197 231.688 36.5869C232.196 35.5541 233.335 33.2943 234.009 32.7558C234.683 32.2173 237.328 27.2917 236.452 25.9588C235.577 24.6258 233.247 23.7607 230.742 25.7469C228.238 27.7331 226.048 30.0546 225.094 32.4645C224.139 34.8744 220.006 40.9123 217.002 40.621C213.998 40.3297 211.458 36.6663 210.416 33.5591C209.374 30.4519 208.664 23.9196 208.533 21.2538C208.21 17.0562 207.672 12.8782 206.922 8.7366C206.466 6.66218 205.372 -0.885203 201.965 0.0858051C198.558 1.05681 200.502 6.95348 200.914 9.19563C201.326 11.4378 201.685 18.685 201.711 19.1176C201.737 19.5501 203.375 28.9954 201.037 29.3396C198.698 29.6839 196.815 21.704 196.299 19.6295C195.782 17.5551 193.286 14.1389 192.41 12.3382C191.535 10.5374 187.305 1.94837 184.993 2.46919C182.681 2.99 182.216 5.64703 183.434 7.80973C184.651 9.97243 188.145 16.0545 189.678 20.168C191.211 24.2816 193.277 30.9903 193.277 32.1644C193.277 32.1644 190.562 27.9273 189.266 25.6939C187.97 23.4606 183.67 17.8553 183.031 16.4164C182.392 14.9775 179.782 10.0784 177.689 11.12C175.596 12.1616 175.78 14.2978 177.776 17.6522C179.773 21.0066 183.127 26.5414 183.329 27.3623C183.53 28.1832 186.297 32.5351 186.657 33.4443C187.016 34.3536 189.433 39.0409 188.767 39.3322C188.102 39.6235 185.614 38.6613 184.073 37.3902C182.532 36.119 178.319 32.7028 177.426 31.4317C176.533 30.1606 173.923 29.0218 173.266 29.7545C172.609 30.4872 172.049 31.5818 174.273 33.974C176.498 36.3662 179.975 40.1355 182.269 42.6689Z" fill="#E24855"/>
<path d="M235.165 82.1978C237.233 85.2186 238.787 88.5659 239.763 92.1021C240.034 93.8675 242.477 99.826 242.723 101.124C242.968 102.421 244.159 107.824 243.651 109.139C243.143 110.454 241.54 114.435 241.777 116.139C241.864 116.774 239.64 131.41 236.855 149.365H262.839L263.067 115.38C263.067 115.38 269.95 100.373 274.233 96.8423C276.832 94.9051 278.593 92.0359 279.154 88.8271C279.531 87.5295 284.33 81.6505 284.934 80.6706C285.539 79.6908 286.87 77.5546 287.562 77.0691C288.253 76.5836 291.397 71.9581 290.609 70.5457C289.821 69.1333 287.614 68.0652 284.943 69.813C282.272 71.5608 279.881 73.6617 278.708 75.9921C277.534 78.3226 272.875 83.9368 269.906 83.363C266.937 82.7892 264.748 78.9493 263.986 75.745C263.224 72.5407 263.11 65.9819 263.233 63.3161C263.297 59.0974 263.145 54.8782 262.778 50.6753C262.506 48.5744 262.112 40.9652 258.626 41.6096C255.141 42.254 256.551 48.3096 256.752 50.5782C256.954 52.8469 256.656 60.1029 256.647 60.5355C256.639 60.968 257.4 70.5192 255.036 70.6516C252.671 70.784 251.533 62.654 251.209 60.509C250.885 58.3639 248.704 54.7624 248.004 52.8822C247.303 51.0019 243.905 42.0775 241.549 42.3688C239.193 42.6601 238.493 45.2818 239.509 47.5416C240.525 49.8014 243.45 56.1924 244.606 60.4295C245.762 64.6667 247.233 71.5343 247.093 72.7084C247.093 72.7084 244.772 68.2417 243.686 65.8937C242.6 63.5456 238.826 57.596 238.283 56.1041C237.74 54.6123 235.655 49.4925 233.448 50.3664C231.241 51.2403 231.294 53.3235 232.967 56.8368C234.639 60.3501 237.486 66.185 237.608 66.9971C237.731 67.8092 240.095 72.4259 240.376 73.3616C240.656 74.2973 242.626 79.1965 241.934 79.426C241.243 79.6555 238.861 78.4638 237.442 77.0514C236.023 75.6391 232.143 71.861 231.364 70.5015C230.585 69.1421 228.141 67.7827 227.379 68.4448C226.617 69.1068 225.996 70.1573 227.992 72.7437C229.989 75.3301 233.107 79.4436 235.165 82.1978Z" fill="#63CFD9"/>
<path d="M287.395 49.2982C287.886 50.3664 292.089 56.9251 292.335 58.2845C292.533 61.6172 293.994 64.7457 296.416 67.0236C300.383 71.0665 305.637 87.1852 305.637 87.1852L298.973 149.365H329.423C328.232 121.577 327.006 91.3606 327.234 90.4602C327.671 88.7741 326.498 84.5105 326.13 83.107C325.762 81.7034 327.593 76.3452 328.004 75.0564C328.416 73.7676 331.577 67.9946 332.068 66.2291C333.467 62.7403 335.436 59.5121 337.892 56.6779C340.309 54.1356 343.961 50.3046 346.29 47.9124C348.62 45.5201 348.112 44.3814 347.411 43.6046C346.711 42.8278 344.057 43.9489 343.111 45.2377C342.165 46.5265 337.778 49.9162 336.175 51.1873C334.572 52.4584 331.989 53.3941 331.315 53.0764C330.64 52.7586 333.215 48.0095 333.609 47.0914C334.003 46.1734 336.946 41.7332 337.165 40.9123C337.384 40.0913 340.966 34.4948 343.067 31.1139C345.169 27.733 345.441 25.6233 343.321 24.4669C341.202 23.3105 338.461 28.2892 337.734 29.7633C337.007 31.2375 332.479 36.8252 331.104 39.0938C329.729 41.3625 326.848 45.6437 326.848 45.6437C326.848 44.4344 329.134 37.602 330.798 33.4267C332.462 29.2513 336.184 23.0899 337.48 20.9007C338.776 18.7115 338.356 15.975 336 15.3924C333.644 14.8098 329.099 23.5047 328.171 25.332C327.242 27.1593 324.606 30.5754 324.028 32.7205C323.45 34.8655 321.34 43.0132 318.949 42.6071C316.558 42.2011 318.45 32.5616 318.493 32.1114C318.537 31.6612 319.063 24.2374 319.536 21.9511C320.009 19.6648 322.163 13.7152 318.66 12.603C315.157 11.4907 313.905 19.2411 313.405 21.3509C312.539 25.5864 311.893 29.8647 311.47 34.1682C311.312 36.9046 310.401 43.6046 309.263 46.7383C308.124 49.872 305.453 53.5795 302.362 53.8002C299.271 54.0209 295.128 47.7358 294.252 45.2377C293.377 42.7395 291.143 40.3208 288.621 38.2288C286.099 36.1367 283.726 36.9664 282.762 38.3082C281.799 39.65 284.426 44.7433 285.109 45.3171C285.793 45.8909 286.887 48.2213 287.395 49.2982Z" fill="#FE8F2B"/>
<path d="M340.028 87.1056C341.857 89.5271 343.272 92.2389 344.215 95.1296C344.512 96.5597 346.754 101.424 347.008 102.483C347.262 103.542 348.453 107.973 348.085 109.086C347.718 110.198 346.544 113.561 346.798 114.947C346.903 115.538 345.283 130.836 343.374 148.323H365.776L364.392 113.499C364.392 113.499 369.524 100.788 372.931 97.7425C375.014 96.0444 376.364 93.5988 376.697 90.919C376.968 89.8332 380.716 84.7398 381.172 83.9454C381.722 82.826 382.421 81.7868 383.247 80.8558C383.825 80.4321 386.225 76.4421 385.515 75.3387C384.806 74.2353 382.949 73.3967 380.795 74.9503C378.641 76.5039 376.749 78.3312 375.873 80.2467C374.998 82.1623 371.346 87.0526 368.867 86.6907C366.389 86.3288 364.436 83.2127 363.683 80.6175C362.951 77.2597 362.575 73.8332 362.562 70.3954C362.451 66.9015 362.158 63.4158 361.686 59.9527C361.388 58.1872 360.81 51.9021 357.903 52.6083C354.995 53.3145 356.431 58.2578 356.72 60.1027C357.009 61.9476 357.009 67.9944 357.009 68.3563C357.009 68.7182 358.017 76.5922 356.072 76.7952C354.128 76.9983 352.858 70.3071 352.508 68.5417C352.158 66.7762 350.222 63.8808 349.565 62.3625C348.909 60.8442 345.73 53.5352 343.794 53.9059C341.859 54.2767 341.377 56.4394 342.305 58.3196C344.096 61.7043 345.67 65.2012 347.017 68.7888C348.129 72.2492 349.583 77.881 349.539 78.8608C349.539 78.8608 347.455 75.2416 346.457 73.3437C345.458 71.4459 342.122 66.6703 341.614 65.4521C341.106 64.2339 339.161 60.0851 337.392 60.8972C335.623 61.7093 335.72 63.4218 337.235 66.2642C338.75 69.1066 341.333 73.8381 341.473 74.5001C341.614 75.1622 343.742 78.9138 344.004 79.6641C344.267 80.4144 346.089 84.4044 345.528 84.6163C344.968 84.8281 342.945 83.9454 341.719 82.8508C340.493 81.7562 337.13 78.7637 336.464 77.6691C335.799 76.5745 333.688 75.5417 333.084 76.1244C332.479 76.707 332.006 77.5897 333.758 79.6553C335.51 81.7209 338.224 84.9252 340.028 87.1056Z" fill="#35B1E3"/>
<path d="M378.842 58.6112C380.975 61.1848 382.665 64.0998 383.843 67.2356C384.237 68.7892 386.952 74.0238 387.285 75.1802C387.617 76.3365 389.141 81.1475 388.791 82.3833C388.441 83.6191 387.32 87.3884 387.67 88.9067C387.88 89.7894 385.84 121.974 384.123 148.324H412.235L406.98 86.4174C406.98 86.4174 411.99 72.17 415.589 68.6479C417.789 66.6688 419.15 63.9128 419.39 60.9505C419.626 59.7411 423.497 53.9945 423.961 53.05C424.507 51.7805 425.223 50.5925 426.09 49.5191C426.711 49.0159 429.146 44.5404 428.314 43.3399C427.482 42.1394 425.389 41.345 423.103 43.1546C420.818 44.9642 418.821 47.0827 417.945 49.2807C417.069 51.4787 413.303 56.9958 410.554 56.731C407.804 56.4662 405.474 53.1383 404.528 50.3135C403.583 47.4888 402.899 41.4862 402.777 39.0763C402.486 35.2278 401.995 31.3974 401.306 27.6008C400.885 25.7117 399.887 18.7734 396.778 19.7091C393.669 20.6448 395.447 25.9765 395.823 28.0157C396.2 30.0548 396.524 36.6841 396.55 37.0813C396.576 37.4786 398.074 46.0941 395.937 46.4118C393.8 46.7296 392.084 39.4382 391.611 37.5139C391.138 35.5895 388.861 32.5 388.108 30.8492C387.355 29.1985 383.449 21.3687 381.329 21.8453C379.21 22.322 378.798 24.7495 379.911 26.7269C381.023 28.7042 384.211 34.2478 385.612 37.9994C387.013 41.751 388.896 47.8772 388.896 48.9541C388.896 48.9541 386.426 45.0877 385.235 43.0486C384.044 41.0095 380.13 35.925 379.508 34.6097C378.886 33.2944 376.548 28.8189 374.639 29.8076C372.729 30.7963 372.887 32.6765 374.735 35.7308C376.583 38.785 379.622 43.8431 379.806 44.5581C379.99 45.2731 382.52 49.2807 382.845 50.1105C383.169 50.9403 385.375 55.2215 384.771 55.4864C384.167 55.7512 381.89 54.8773 380.489 53.7209C379.087 52.5645 375.234 49.4485 374.42 48.2832C373.605 47.118 371.258 46.0852 370.628 46.7473C369.997 47.4093 369.515 48.4245 371.503 50.6048C373.491 52.7852 376.74 56.3073 378.842 58.6112Z" fill="#63CFD9"/>
<path d="M8.91193 60.9058C11.0826 63.5184 12.8053 66.478 14.0089 69.6625C14.4117 71.2426 17.1704 76.5655 17.5119 77.7396C17.8535 78.9136 19.4035 83.8039 19.0445 85.0574C18.6854 86.3109 17.5469 90.1508 17.906 91.6868C18.1074 92.5695 16.1545 123.147 14.473 149.365H42.6112L37.488 89.1533C37.488 89.1533 42.5762 74.6765 46.2456 71.1014C48.4796 69.0894 49.862 66.2898 50.1077 63.2804C50.3529 62.0534 54.2851 56.2185 54.758 55.2475C55.3178 53.9795 56.0423 52.7922 56.9124 51.7165C57.5429 51.2134 60.0213 46.6673 59.1806 45.4315C58.3399 44.1956 56.203 43.3924 53.8735 45.2373C51.544 47.0822 49.4947 49.2272 48.6189 51.4694C47.7432 53.7115 43.9161 59.2816 41.1574 59.0079C38.3988 58.7343 36.0255 55.3446 35.0271 52.4845C34.0288 49.6245 33.3632 43.5424 33.2756 41.0619C32.9786 37.1634 32.4816 33.283 31.7868 29.4363C31.3489 27.512 30.3418 20.4766 27.1453 21.4123C23.9487 22.348 25.7878 27.7856 26.1644 29.86C26.541 31.9345 26.8825 38.6874 26.9088 39.067C26.9351 39.4465 28.4852 48.2209 26.3221 48.5475C24.1589 48.8741 22.3986 41.4856 21.9433 39.5083C21.4879 37.531 19.1408 34.4149 18.3351 32.7377C17.5294 31.0606 13.5973 23.0983 11.4516 23.5838C9.30602 24.0693 8.8769 26.5409 10.0066 28.5448C11.1364 30.5486 14.3854 36.1892 15.8042 40.0203C17.2229 43.8514 19.1408 50.057 19.1408 51.1516C19.1408 51.1516 16.6186 47.2234 15.4101 45.149C14.2015 43.0746 10.2256 37.9017 9.59503 36.5776C8.96448 35.2535 6.59117 30.6986 4.64698 31.6961C2.70279 32.6936 2.89546 34.6091 4.74331 37.7075C6.59117 40.8059 9.71763 45.9611 9.90154 46.6938C10.0855 47.4265 12.6514 51.4959 12.993 52.3345C13.3345 53.1731 15.559 57.5249 14.9459 57.7986C14.3329 58.0722 12.0209 57.1807 10.5671 56.0331C9.11336 54.8856 5.25125 51.6371 4.37549 50.4542C3.49973 49.2714 1.19648 48.2121 0.557174 48.8918C-0.0821314 49.5715 -0.581315 50.5955 1.48548 52.8111C3.55228 55.0268 6.77508 58.5577 8.91193 60.9058Z" fill="#63CFD9"/>
<path d="M90.2792 51.1958C90.7696 52.2551 94.9207 58.7167 95.1572 60.0232C95.3492 63.3133 96.792 66.4022 99.1857 68.6475C103.092 72.6374 108.294 88.5355 108.294 88.5355L101.778 149.321H131.738C130.573 122.106 129.373 92.6844 129.61 91.8016C130.03 90.1421 128.883 85.9314 128.524 84.5544C128.165 83.1773 129.969 77.8809 130.363 76.6098C130.757 75.3386 133.866 69.6097 134.374 67.8883C135.753 64.45 137.695 61.2693 140.119 58.4784C142.492 55.9714 146.1 52.1933 148.403 49.8276C150.707 47.4619 150.155 46.2966 149.507 45.5816C148.859 44.8666 146.197 45.9171 145.268 47.1882C144.34 48.4593 140.014 51.8049 138.42 53.0584C136.826 54.3119 134.286 55.2387 133.629 54.9298C132.973 54.6208 135.503 49.9247 135.889 49.0155C136.274 48.1063 139.173 43.7191 139.392 42.9423C139.611 42.1654 143.149 36.6042 145.224 33.2763C147.3 29.9484 147.563 27.8563 145.47 26.7176C143.377 25.5789 140.679 30.478 139.961 31.9169C139.243 33.3558 134.785 38.8993 133.419 41.1238C132.053 43.3483 129.216 47.5766 129.216 47.5766C129.216 46.3849 131.466 39.632 133.113 35.5273C134.759 31.4226 138.429 25.3317 139.707 23.169C140.986 21.0063 140.583 18.314 138.245 17.7314C135.906 17.1488 131.44 25.7378 130.52 27.5474C129.601 29.357 127.017 32.7202 126.439 34.8388C125.861 36.9573 123.812 44.9902 121.43 44.5488C119.048 44.1075 120.931 34.6357 120.975 34.1944C121.018 33.753 121.535 26.4263 121.999 24.1753C122.463 21.9243 124.565 16.0453 121.123 14.9507C117.682 13.8562 116.429 21.4918 115.921 23.5839C115.064 27.7606 114.427 31.9801 114.012 36.2246C113.855 38.9258 112.961 45.5375 111.832 48.6271C110.702 51.7166 108.066 55.38 105.027 55.6007C101.988 55.8214 97.9246 49.6246 97.0138 47.1617C96.103 44.6989 93.9486 42.3155 91.4615 40.2499C88.9743 38.1843 86.6273 38.9964 85.6727 40.3294C84.7181 41.6623 87.3191 46.6762 87.9935 47.2412C88.6678 47.8061 89.7888 50.1454 90.2792 51.1958Z" fill="#FE8F2B"/>
<path d="M46.0705 89.9129C46.4909 90.7956 50.0202 96.3039 50.2216 97.4515C50.3855 100.247 51.6119 102.871 53.6458 104.778C56.965 108.168 61.3876 121.7 61.3876 121.7L58.4275 149.365H80.3215C79.7698 135.603 79.3844 124.931 79.507 124.445C79.8749 123.024 78.8852 119.449 78.5875 118.266C78.2897 117.083 79.8136 112.59 80.1551 111.505C80.4966 110.419 83.159 105.546 83.5618 104.09C84.736 101.162 86.3877 98.4528 88.4486 96.0744C90.4716 93.947 93.5455 90.778 95.4546 88.7212C97.3638 86.6644 96.9785 85.7552 96.4005 85.1108C95.8225 84.4664 93.5805 85.4021 92.7836 86.4791C91.9866 87.556 88.3084 90.3984 86.9598 91.4753C85.6111 92.5523 83.4567 93.3203 82.8875 93.0554C82.3182 92.7906 84.4814 88.8095 84.8142 88.0327C85.1469 87.2559 87.6078 83.5396 87.7917 82.8687C87.9756 82.1978 91.0758 77.4928 92.8274 74.6592C94.5789 71.8257 94.8153 70.0514 93.0375 69.0892C91.2597 68.127 88.9653 72.2847 88.3522 73.5029C87.7392 74.721 83.9734 79.4348 82.7911 81.3327C81.6089 83.2306 79.218 86.8145 79.218 86.8145C79.218 85.8082 81.136 80.0792 82.5372 76.566C84.1782 72.946 86.0504 69.4371 88.142 66.0614C89.228 64.2253 88.8777 61.9302 86.8985 61.4359C84.9192 60.9416 81.1097 68.2418 80.3303 69.7777C79.5508 71.3137 77.3352 74.1914 76.8272 75.9569C76.3193 77.7223 74.5678 84.59 72.571 84.2457C70.5743 83.9015 72.1506 75.8156 72.1769 75.4184C72.2032 75.0212 72.6586 68.8067 73.0527 66.8912C73.4468 64.9756 75.2246 60.0235 72.317 59.1408C69.4095 58.258 68.3061 64.6755 67.8857 66.4498C67.1662 70.0039 66.6255 73.5924 66.2655 77.2015C66.0255 80.7887 65.406 84.3398 64.4177 87.7943C63.4631 90.4425 61.2124 93.5321 58.6201 93.7175C56.0279 93.9029 52.5862 88.6418 51.8155 86.5497C51.0448 84.4576 49.1882 82.4273 47.0864 80.6707C44.9846 78.914 42.9791 79.6026 42.1734 80.7325C41.3677 81.8624 43.5658 86.1348 44.1438 86.6203C44.9273 87.6274 45.5751 88.7345 46.0705 89.9129V89.9129Z" fill="#E24855"/>
<rect y="55.8021" width="450" height="94.1979" fill="url(#paint0_linear)"/>
<defs>
<linearGradient id="paint0_linear" x1="225" y1="55.8021" x2="224.892" y2="137.183" gradientUnits="userSpaceOnUse">
<stop offset="0.119792" stop-color="white" stop-opacity="0"/>
<stop offset="1" stop-color="white"/>
</linearGradient>
</defs>
</svg>
