<svg width="78" height="86" viewBox="0 0 78 86" fill="none" xmlns="http://www.w3.org/2000/svg">
<path d="M76.6229 11.5379L72.9553 8.30834L76.6229 5.07943C77.1933 4.57653 77.3884 3.79271 77.1206 3.08158C76.8515 2.36979 76.1868 1.91011 75.4266 1.91011H60.2492V1.25791C60.2492 0.563144 59.6861 0 58.9913 0C58.2965 0 57.7334 0.563144 57.7334 1.25791V18.2229L47.4023 23.8328C47.3453 23.3783 47.2091 22.9317 46.9937 22.5114L45.538 19.6694C44.5388 17.7181 42.1382 16.9447 40.1882 17.9433L39.0625 18.5196C38.117 19.0041 37.417 19.8266 37.0909 20.8376C36.7648 21.848 36.8519 22.9252 37.3364 23.8701L38.7921 26.7127C39.132 27.376 39.6342 27.9012 40.2248 28.2692C39.4522 29.3097 39.0855 30.5892 38.7083 31.9185L38.4372 32.8784C38.248 33.547 38.6369 34.2424 39.3055 34.431C39.4194 34.4638 39.5347 34.4788 39.648 34.4788C40.1967 34.4788 40.7009 34.1174 40.8581 33.5627L41.1292 32.6047C41.6805 30.6606 42.0191 29.6194 43.0969 29.034L45.0293 27.9843L45.2676 27.8625C45.3468 27.8219 45.4208 27.7761 45.4961 27.7309L59.2683 20.2522C59.1812 21.9737 58.2546 23.6003 56.7289 24.5269L47.7729 29.9684C47.7625 29.9743 47.752 29.9802 47.7422 29.9868L44.9546 31.6801C44.3613 32.0409 44.1721 32.8149 44.5329 33.4088C44.8727 33.9687 45.58 34.1678 46.1568 33.8869L44.0418 40.2805L42.4958 40.9144L38.2918 42.6372L39.5032 38.3547C39.6918 37.6861 39.3035 36.9907 38.6349 36.8015C37.9657 36.6116 37.271 37.0012 37.0817 37.6697L35.1677 44.4386C35.1428 44.5257 35.1264 44.6213 35.1225 44.7123L34.6216 53.9138C34.6065 54.2648 34.6812 54.9281 34.5188 55.2706L28.9554 66.9748H24.9126C22.5441 66.9748 20.6176 68.9013 20.6176 71.2691V74.9001C20.0754 74.6519 19.4736 74.5131 18.8391 74.5131H8.57223C6.20441 74.5131 4.27793 76.4389 4.27793 78.8074V83.3126H1.25791C0.563144 83.3126 0 83.8757 0 84.5705C0 85.2652 0.563144 85.8284 1.25791 85.8284H75.4253C76.12 85.8284 76.6832 85.2652 76.6832 84.5705C76.6832 83.8757 76.12 83.3126 75.4253 83.3126H72.1538V50.8892C72.1538 48.5214 70.2273 46.5949 67.8595 46.5949H60.2492V24.65C61.644 22.7595 62.1606 20.2817 61.513 17.927C61.4115 17.557 61.1463 17.2532 60.7927 17.1032C60.6192 17.0292 60.4332 16.9965 60.2492 17.0037V14.7072H75.4259C76.1868 14.7072 76.8515 14.2475 77.1199 13.5364C77.3884 12.8253 77.1933 12.0408 76.6229 11.5379ZM39.4856 21.6103C39.6054 21.239 39.8621 20.9365 40.2091 20.7591L41.3348 20.1828C41.5469 20.0741 41.7735 20.0224 41.9974 20.0224C42.5278 20.0224 43.0406 20.3125 43.2986 20.816L44.7549 23.6586C45.0947 24.3226 44.8747 25.1274 44.2703 25.534L43.8604 25.756L42.9954 26.1993C42.2797 26.566 41.3983 26.2818 41.0316 25.5654L39.5753 22.7235C39.3978 22.3765 39.3657 21.9809 39.4856 21.6103ZM36.958 67.3618C36.5304 67.1667 36.0654 67.039 35.5769 66.9938L36.958 65.1597V67.3618ZM42.9306 57.2259C43.5356 56.501 43.7026 55.6543 43.8375 54.972C43.8715 54.8096 44.4923 51.419 44.4923 51.419C44.4923 51.419 45.0797 51.785 45.1412 51.8112C45.1838 51.8302 45.2139 51.8721 45.2185 51.9212L45.9028 58.8774H41.6871L42.9306 57.2259ZM50.3693 50.2829L49.3072 58.8715H48.4304L47.7225 51.675C47.6322 50.753 47.0677 49.9482 46.2407 49.5482L44.9756 48.746L45.8183 44.0752C45.8183 44.0752 49.3687 48.2929 49.4512 48.4003C50.1859 49.3556 50.4374 49.7381 50.3693 50.2829ZM36.7818 56.3707C37.0359 55.6059 37.1538 54.8273 37.1341 54.0356L37.5912 45.6435L43.4092 43.2593L42.3517 49.1173C42.3484 49.133 42.3451 49.1494 42.3432 49.1651L41.4683 54.0088C41.3544 54.5104 41.2549 55.2713 40.9419 55.6845L32.4417 66.9748H31.741L36.7818 56.3707ZM6.79374 78.8068C6.79374 77.8265 7.59131 77.0289 8.57223 77.0289H18.8391C19.82 77.0289 20.6183 77.8265 20.6183 78.8068V83.3126H6.79374V78.8068ZM23.1334 78.8068V71.2691C23.1334 70.2882 23.9317 69.4907 24.9126 69.4907H35.1795C36.1604 69.4907 36.958 70.2882 36.958 71.2691V83.3126H23.1341V78.8068H23.1334ZM69.638 50.8892V83.3126H55.8141V75.7704C55.8141 75.0756 55.251 74.5125 54.5562 74.5125C53.8608 74.5125 53.2976 75.0756 53.2976 75.7704V83.3126H39.4738V63.171C39.4738 62.1907 40.2713 61.3932 41.2523 61.3932H51.5192C52.5001 61.3932 53.2976 62.1907 53.2976 63.171V69.4769C53.2976 70.1717 53.8608 70.7348 54.5556 70.7348C55.251 70.7348 55.8135 70.1717 55.8135 69.4769V50.8892C55.8135 49.9083 56.6117 49.1107 57.5926 49.1107H58.9782C58.9821 49.1107 58.9867 49.1114 58.9913 49.1114C58.9952 49.1114 58.9998 49.1107 59.0037 49.1107H67.8588C68.8398 49.1107 69.638 49.909 69.638 50.8892ZM57.5926 46.5949C55.2248 46.5949 53.2983 48.5214 53.2983 50.8892V59.2644C52.8478 59.0587 52.3567 58.9284 51.84 58.8904L52.8661 50.5926C53.0678 48.9752 52.2427 47.9033 51.4452 46.866C51.3607 46.756 46.4712 40.9504 46.4712 40.9504L49.4709 31.8812L57.7334 26.8613V46.5949H57.5926ZM60.2492 12.1908V4.42657H73.5571L70.6909 6.95024C70.3007 7.29402 70.0767 7.78907 70.0767 8.30899C70.0767 8.82892 70.3007 9.32396 70.6909 9.66774L73.5571 12.1914H60.2492V12.1908Z" fill="#0188FF"/>
</svg>
