<svg width="34" height="34" viewBox="0 0 34 34" fill="none" xmlns="http://www.w3.org/2000/svg">
<path d="M10.8163 15.4835C10.6645 15.642 10.5456 15.8289 10.4663 16.0335C10.2996 16.4393 10.2996 16.8944 10.4663 17.3002C10.5456 17.5047 10.6645 17.6916 10.8163 17.8502L15.8163 22.8502C16.1301 23.164 16.5558 23.3403 16.9996 23.3403C17.4434 23.3403 17.8691 23.164 18.1829 22.8502C18.4968 22.5363 18.6731 22.1107 18.6731 21.6668C18.6731 21.223 18.4968 20.7973 18.1829 20.4835L16.0163 18.3335L21.9996 18.3335C22.4416 18.3335 22.8655 18.1579 23.1781 17.8453C23.4907 17.5328 23.6663 17.1088 23.6663 16.6668C23.6663 16.2248 23.4907 15.8009 23.1781 15.4883C22.8655 15.1757 22.4416 15.0002 21.9996 15.0002L16.0163 15.0002L18.1829 12.8502C18.3391 12.6952 18.4631 12.5109 18.5477 12.3078C18.6324 12.1047 18.6759 11.8868 18.6759 11.6668C18.6759 11.4468 18.6324 11.229 18.5477 11.0259C18.4631 10.8228 18.3391 10.6384 18.1829 10.4835C18.028 10.3273 17.8436 10.2033 17.6405 10.1187C17.4375 10.0341 17.2196 9.99049 16.9996 9.99049C16.7796 9.99049 16.5617 10.0341 16.3586 10.1187C16.1555 10.2033 15.9712 10.3273 15.8163 10.4835L10.8163 15.4835ZM0.332922 16.6668C0.332921 19.9632 1.31041 23.1855 3.14176 25.9263C4.97312 28.6671 7.57609 30.8034 10.6215 32.0648C13.667 33.3263 17.0181 33.6563 20.2511 33.0132C23.4841 32.3702 26.4538 30.7828 28.7847 28.4519C31.1156 26.1211 32.7029 23.1513 33.346 19.9183C33.9891 16.6853 33.659 13.3342 32.3976 10.2888C31.1361 7.24333 28.9999 4.64035 26.2591 2.809C23.5183 0.977641 20.2959 0.000155234 16.9996 0.000154946C12.5793 0.000154559 8.34008 1.7561 5.21448 4.88171C2.08887 8.00731 0.332922 12.2465 0.332922 16.6668ZM30.3329 16.6668C30.3329 19.3039 29.5509 21.8818 28.0858 24.0744C26.6208 26.2671 24.5384 27.976 22.102 28.9852C19.6657 29.9944 16.9848 30.2584 14.3984 29.744C11.812 29.2295 9.4362 27.9596 7.5715 26.0949C5.7068 24.2302 4.43692 21.8544 3.92245 19.268C3.40798 16.6816 3.67203 14.0007 4.68119 11.5644C5.69036 9.12803 7.39933 7.04565 9.59199 5.58056C11.7846 4.11548 14.3625 3.33349 16.9996 3.33349C20.5358 3.33349 23.9272 4.73825 26.4277 7.23873C28.9282 9.73922 30.3329 13.1306 30.3329 16.6668Z" fill="#0188FF"/>
</svg>
