<svg width="34" height="34" viewBox="0 0 34 34" fill="none" xmlns="http://www.w3.org/2000/svg">
<path d="M23.1833 18.1834C23.335 18.0249 23.4539 17.838 23.5333 17.6334C23.7 17.2276 23.7 16.7725 23.5333 16.3667C23.4539 16.1621 23.335 15.9752 23.1833 15.8167L18.1833 10.8167C17.8694 10.5029 17.4438 10.3266 16.9999 10.3266C16.5561 10.3266 16.1304 10.5029 15.8166 10.8167C15.5028 11.1306 15.3264 11.5562 15.3264 12C15.3264 12.4439 15.5028 12.8695 15.8166 13.1834L17.9833 15.3334H11.9999C11.5579 15.3334 11.134 15.509 10.8214 15.8215C10.5089 16.1341 10.3333 16.558 10.3333 17C10.3333 17.4421 10.5089 17.866 10.8214 18.1786C11.134 18.4911 11.5579 18.6667 11.9999 18.6667H17.9833L15.8166 20.8167C15.6604 20.9717 15.5364 21.156 15.4518 21.3591C15.3672 21.5622 15.3236 21.78 15.3236 22C15.3236 22.2201 15.3672 22.4379 15.4518 22.641C15.5364 22.8441 15.6604 23.0284 15.8166 23.1834C15.9715 23.3396 16.1559 23.4636 16.359 23.5482C16.5621 23.6328 16.7799 23.6764 16.9999 23.6764C17.2199 23.6764 17.4378 23.6328 17.6409 23.5482C17.844 23.4636 18.0283 23.3396 18.1833 23.1834L23.1833 18.1834ZM33.6666 17C33.6666 13.7037 32.6891 10.4814 30.8577 7.74054C29.0264 4.99972 26.4234 2.86352 23.378 1.60206C20.3325 0.340595 16.9814 0.0105399 13.7484 0.653627C10.5154 1.29671 7.54569 2.88406 5.21481 5.21494C2.88394 7.54581 1.29659 10.5155 0.653505 13.7485C0.0104178 16.9816 0.340473 20.3327 1.60193 23.3781C2.86339 26.4235 4.9996 29.0265 7.74042 30.8579C10.4812 32.6892 13.7036 33.6667 16.9999 33.6667C21.4202 33.6667 25.6594 31.9108 28.785 28.7852C31.9106 25.6596 33.6666 21.4203 33.6666 17ZM3.66659 17C3.66659 14.363 4.44858 11.7851 5.91366 9.59244C7.37875 7.39979 9.46113 5.69082 11.8975 4.68165C14.3338 3.67249 17.0147 3.40844 19.6011 3.92291C22.1875 4.43738 24.5633 5.70726 26.428 7.57196C28.2927 9.43666 29.5626 11.8124 30.0771 14.3988C30.5915 16.9853 30.3275 19.6661 29.3183 22.1025C28.3092 24.5388 26.6002 26.6212 24.4075 28.0863C22.2149 29.5514 19.637 30.3334 16.9999 30.3334C13.4637 30.3334 10.0723 28.9286 7.57184 26.4281C5.07135 23.9277 3.66659 20.5363 3.66659 17Z" fill="#C4C4C4"/>
</svg>
