<svg width="35" height="38" viewBox="0 0 35 38" fill="none" xmlns="http://www.w3.org/2000/svg">
<path d="M33.25 14.4752C33.7141 14.4752 34.1592 14.2846 34.4874 13.9452C34.8156 13.6058 35 13.1456 35 12.6656V7.23682C35 6.85712 34.8843 6.48705 34.6695 6.17913C34.4546 5.8712 34.1515 5.64105 33.803 5.52133L18.053 0.0925303C17.694 -0.0308434 17.306 -0.0308434 16.947 0.0925303L1.197 5.52133C0.848529 5.64105 0.545363 5.8712 0.330507 6.17913C0.115651 6.48705 1.39582e-05 6.85712 0 7.23682V12.6656C0 13.1456 0.184374 13.6058 0.512563 13.9452C0.840752 14.2846 1.28587 14.4752 1.75 14.4752H3.5V27.4754C2.4792 27.8472 1.59474 28.5366 0.968059 29.449C0.341379 30.3614 0.00321392 31.4521 0 32.5712V36.1904C0 36.6703 0.184374 37.1306 0.512563 37.47C0.840752 37.8093 1.28587 38 1.75 38H33.25C33.7141 38 34.1592 37.8093 34.4874 37.47C34.8156 37.1306 35 36.6703 35 36.1904V32.5712C34.9968 31.4521 34.6586 30.3614 34.0319 29.449C33.4053 28.5366 32.5208 27.8472 31.5 27.4754V14.4752H33.25ZM31.5 34.3808H3.5V32.5712C3.50046 32.0914 3.68499 31.6314 4.01307 31.2922C4.34116 30.9529 4.78601 30.7621 5.25 30.7616H29.75C30.214 30.7621 30.6588 30.9529 30.9869 31.2922C31.315 31.6314 31.4995 32.0914 31.5 32.5712V34.3808ZM7 27.1424V14.4752H10.5V27.1424H7ZM14 27.1424V14.4752H21V27.1424H14ZM24.5 27.1424V14.4752H28V27.1424H24.5ZM3.5 10.856V8.53974L17.5 3.71535L31.5 8.54155V10.856H3.5Z" fill="#0088FF"/>
</svg>
