<svg width="40" height="47" viewBox="0 0 40 47" fill="none" xmlns="http://www.w3.org/2000/svg">
<path d="M38.153 5.38338H30.9578V1.83594C30.9578 0.821869 30.131 0 29.1108 0H10.8824C9.86219 0 9.03535 0.821869 9.03535 1.83594V5.38338H1.84704C0.82684 5.38338 0 6.20525 0 7.21932V12.6751C0 19.656 5.71392 25.3356 12.737 25.3356H12.8139C14.2468 27.6786 16.0566 29.801 18.1494 31.5828V36.2325C16.2756 36.4882 14.4708 37.1297 12.8488 38.1258C8.91162 40.5448 7.71248 43.9481 7.45058 44.3429C6.83766 45.5614 7.72944 47 9.10245 47H30.8975C32.2677 47 33.1634 45.5635 32.5494 44.3429C32.3048 43.9739 31.0823 40.5412 27.1512 38.1258C25.5274 37.1286 23.7197 36.4867 21.8434 36.2318V31.5828C23.9361 29.801 25.746 27.6786 27.1793 25.3356H27.263C34.2861 25.3356 40 19.656 40 12.6751V7.21932C40 6.20525 39.1732 5.38338 38.153 5.38338ZM3.69408 12.6751V9.05526H9.03535V11.9146C9.03535 15.1716 9.671 18.4408 10.8795 21.4726C6.78139 20.6188 3.69408 16.9986 3.69408 12.6751ZM27.6219 43.3281H12.3777C14.2327 41.0981 16.9957 39.7785 20 39.7785C23.0043 39.7785 25.7673 41.0981 27.6219 43.3281ZM19.9964 28.3097C15.3597 24.1056 12.7294 18.2081 12.7294 11.9146C12.7294 11.2387 12.7294 4.23234 12.7294 3.67188H27.2637V11.9146C27.2637 18.378 24.5036 24.2233 19.9964 28.3097ZM36.3059 12.6751C36.3059 17.0014 33.215 20.6235 29.1129 21.4744C30.3218 18.4418 30.9578 15.1719 30.9578 11.9146V9.05526H36.3059V12.6751Z" fill="#0088FF"/>
<path d="M19.4641 7.10532L17.0261 8.57407C16.0712 9.1435 16.5168 10.6854 17.3955 10.6854C17.7523 10.6854 17.9594 10.4466 18.393 10.2081V19.5528C18.393 20.7278 21.2743 20.7278 21.2743 19.5528V7.87627C21.2743 7.1297 20.0178 6.76144 19.4641 7.10532Z" fill="#0088FF"/>
</svg>
