<svg width="40" height="42" viewBox="0 0 40 42" fill="none" xmlns="http://www.w3.org/2000/svg">
<path d="M20 0C18.9733 0 17.9467 0.344037 17.0714 0.959428L14.3402 2.8266L11.2076 3.2304H11.1583L11.1056 3.27885C10.0755 3.50651 9.1324 4.01655 8.38592 4.74966C7.63944 5.48278 7.12027 6.40886 6.88878 7.42022L6.83942 7.46868V7.52036L6.4281 10.6506L4.52616 13.0734L4.47351 13.1219V13.1736C3.32511 14.9793 3.27246 17.3085 4.52616 19.0287L6.47581 21.7083L6.99243 24.4832L1.69464 32.409L0 34.8802H7.86607L9.76802 39.2219L10.9526 42L12.6473 39.4754L17.843 31.8033C19.2349 32.3686 20.8144 32.417 22.1602 31.8033L27.3544 39.4754L29.049 41.9952L30.2336 39.217L32.1339 34.8786H40L38.3054 32.4041L33.1622 24.7335L33.5735 21.705L35.4755 19.0303L35.5281 18.9818V18.9334C36.6765 17.1243 36.7292 14.8501 35.4755 13.1267L33.5735 10.4503L32.9566 7.42022H33.0059C33.0059 7.37984 32.9615 7.35561 32.9566 7.31846C32.6604 5.2074 30.9543 3.49044 28.794 3.23201H28.7414L25.6565 2.82821L22.9302 0.961043C22.0793 0.348886 21.0549 0.0128988 20 0ZM20 3.27885C20.3784 3.27885 20.7535 3.39192 21.0283 3.58574L23.9569 5.65319L24.3189 5.90517L24.7302 5.95685L28.33 6.46079H28.3794C29.1165 6.54155 29.6364 7.05034 29.717 7.77395V7.87409L30.3866 11.4598L30.436 11.8103L30.6943 12.114L32.8003 14.989C33.1951 15.5301 33.2445 16.433 32.7509 17.2116L30.6943 20.0381L30.4376 20.3935L30.385 20.7973L29.8717 24.3281V24.3766C29.8461 24.6294 29.758 24.8722 29.615 25.084L29.5114 25.1357V25.1874C29.2662 25.4747 28.9157 25.6557 28.5357 25.6913H28.4337L24.6825 26.3487L24.2711 26.3972L23.9585 26.6508L21.0299 28.7182C20.4821 29.1059 19.5097 29.1543 18.7167 28.6698L16.0415 26.6508L15.7321 26.3988L15.2715 26.3471L11.67 25.8432H11.6173C11.3845 25.8245 11.1598 25.7503 10.9628 25.627C10.7658 25.5037 10.6025 25.3351 10.487 25.1357C10.3767 24.9497 10.3061 24.7437 10.2797 24.53V24.4299L9.61171 20.7472L9.55907 20.3434L9.3024 20.0365L7.19645 17.1615C6.80158 16.6236 6.75222 15.669 7.2458 14.8905L9.3024 12.2642L9.55907 11.9605L9.60842 11.5083L10.074 8.12445C10.0773 8.10183 10.1168 8.10022 10.1234 8.07599C10.2266 7.68748 10.4335 7.333 10.7226 7.04909C11.0118 6.76518 11.3729 6.56211 11.7687 6.46079C11.7934 6.45433 11.795 6.41557 11.818 6.41234L15.2649 5.95685L15.6762 5.90517L16.0382 5.65319L18.9668 3.58574C19.2415 3.39192 19.6183 3.27885 19.9951 3.27885H20ZM31.3623 27.8622L33.8829 31.6482H29.921L29.5097 32.6577L28.381 35.2307L24.8848 29.9813L25.6548 29.4257L28.8927 28.8684V28.9169C28.9339 28.9169 28.9585 28.8733 28.9964 28.8684C29.8617 28.7453 30.6775 28.3967 31.359 27.8589L31.3623 27.8622ZM8.63771 27.9106C9.34024 28.5276 10.2287 28.9573 11.2076 29.0736H11.257L14.3962 29.4774L15.1152 30.033L11.6206 35.2307L10.4903 32.6577L10.079 31.6466H6.11385L8.63442 27.9106H8.63771Z" fill="#0088FF"/>
</svg>
