<svg width="34" height="34" viewBox="0 0 34 34" fill="none" xmlns="http://www.w3.org/2000/svg">
<path d="M23.1833 17.8505C23.335 17.692 23.4539 17.5051 23.5333 17.3005C23.7 16.8947 23.7 16.4396 23.5333 16.0338C23.4539 15.8292 23.335 15.6423 23.1833 15.4838L18.1833 10.4838C17.8694 10.17 17.4438 9.99368 16.9999 9.99368C16.5561 9.99368 16.1304 10.17 15.8166 10.4838C15.5028 10.7977 15.3264 11.2233 15.3264 11.6672C15.3264 12.111 15.5028 12.5367 15.8166 12.8505L17.9833 15.0005H11.9999C11.5579 15.0005 11.134 15.1761 10.8214 15.4887C10.5089 15.8012 10.3333 16.2251 10.3333 16.6672C10.3333 17.1092 10.5089 17.5331 10.8214 17.8457C11.134 18.1582 11.5579 18.3338 11.9999 18.3338H17.9833L15.8166 20.4838C15.6604 20.6388 15.5364 20.8231 15.4518 21.0262C15.3672 21.2293 15.3236 21.4471 15.3236 21.6672C15.3236 21.8872 15.3672 22.105 15.4518 22.3081C15.5364 22.5112 15.6604 22.6956 15.8166 22.8505C15.9715 23.0067 16.1559 23.1307 16.359 23.2153C16.5621 23.2999 16.7799 23.3435 16.9999 23.3435C17.2199 23.3435 17.4378 23.2999 17.6409 23.2153C17.844 23.1307 18.0283 23.0067 18.1833 22.8505L23.1833 17.8505ZM33.6666 16.6672C33.6666 13.3708 32.6891 10.1485 30.8577 7.40766C29.0264 4.66684 26.4234 2.53063 23.378 1.26917C20.3325 0.00770968 16.9814 -0.322346 13.7484 0.320741C10.5154 0.963828 7.54569 2.55117 5.21481 4.88205C2.88394 7.21292 1.29659 10.1826 0.653505 13.4157C0.0104178 16.6487 0.340473 19.9998 1.60193 23.0452C2.86339 26.0907 4.9996 28.6936 7.74042 30.525C10.4812 32.3563 13.7036 33.3338 16.9999 33.3338C21.4202 33.3338 25.6594 31.5779 28.785 28.4523C31.9106 25.3267 33.6666 21.0874 33.6666 16.6672ZM3.66659 16.6672C3.66659 14.0301 4.44858 11.4522 5.91366 9.25956C7.37875 7.0669 9.46113 5.35794 11.8975 4.34877C14.3338 3.3396 17.0147 3.07556 19.6011 3.59003C22.1875 4.1045 24.5633 5.37437 26.428 7.23907C28.2927 9.10377 29.5626 11.4795 30.0771 14.066C30.5915 16.6524 30.3275 19.3333 29.3183 21.7696C28.3092 24.206 26.6002 26.2883 24.4075 27.7534C22.2149 29.2185 19.637 30.0005 16.9999 30.0005C13.4637 30.0005 10.0723 28.5957 7.57184 26.0953C5.07135 23.5948 3.66659 20.2034 3.66659 16.6672Z" fill="#0188FF"/>
</svg>
