<svg width="34" height="34" viewBox="0 0 34 34" fill="none" xmlns="http://www.w3.org/2000/svg">
<path d="M10.8165 15.8167C10.6648 15.9752 10.5458 16.1622 10.4665 16.3667C10.2998 16.7725 10.2998 17.2276 10.4665 17.6334C10.5458 17.838 10.6648 18.0249 10.8165 18.1834L15.8165 23.1834C16.1303 23.4972 16.556 23.6736 16.9998 23.6736C17.4437 23.6736 17.8693 23.4972 18.1832 23.1834C18.497 22.8696 18.6733 22.4439 18.6733 22.0001C18.6733 21.5562 18.497 21.1306 18.1832 20.8167L16.0165 18.6667L21.9998 18.6667C22.4419 18.6667 22.8658 18.4911 23.1783 18.1786C23.4909 17.866 23.6665 17.4421 23.6665 17.0001C23.6665 16.558 23.4909 16.1341 23.1783 15.8216C22.8658 15.509 22.4419 15.3334 21.9998 15.3334L16.0165 15.3334L18.1832 13.1834C18.3394 13.0285 18.4634 12.8441 18.548 12.641C18.6326 12.4379 18.6762 12.2201 18.6762 12.0001C18.6762 11.7801 18.6326 11.5622 18.548 11.3591C18.4634 11.156 18.3394 10.9717 18.1832 10.8167C18.0282 10.6605 17.8439 10.5365 17.6408 10.4519C17.4377 10.3673 17.2199 10.3237 16.9998 10.3237C16.7798 10.3237 16.562 10.3673 16.3589 10.4519C16.1558 10.5365 15.9714 10.6605 15.8165 10.8167L10.8165 15.8167ZM0.333166 17.0001C0.333165 20.2964 1.31065 23.5188 3.14201 26.2596C4.97336 29.0004 7.57634 31.1366 10.6218 32.3981C13.6672 33.6595 17.0183 33.9896 20.2513 33.3465C23.4844 32.7034 26.4541 31.1161 28.7849 28.7852C31.1158 26.4543 32.7032 23.4846 33.3463 20.2516C33.9893 17.0186 33.6593 13.6675 32.3978 10.622C31.1364 7.57658 29.0002 4.97361 26.2593 3.14225C23.5185 1.31089 20.2962 0.333407 16.9998 0.333407C12.5796 0.333407 8.34033 2.08935 5.21472 5.21496C2.08911 8.34057 0.333166 12.5798 0.333166 17.0001ZM30.3332 17.0001C30.3332 19.6372 29.5512 22.215 28.0861 24.4077C26.621 26.6003 24.5386 28.3093 22.1023 29.3185C19.6659 30.3276 16.985 30.5917 14.3986 30.0772C11.8122 29.5627 9.43644 28.2929 7.57174 26.4282C5.70704 24.5635 4.43716 22.1877 3.92269 19.6013C3.40823 17.0149 3.67227 14.334 4.68144 11.8976C5.69061 9.46128 7.39957 7.3789 9.59223 5.91381C11.7849 4.44873 14.3627 3.66674 16.9998 3.66674C20.5361 3.66674 23.9274 5.0715 26.4279 7.57198C28.9284 10.0725 30.3332 13.4639 30.3332 17.0001Z" fill="#C4C4C4"/>
</svg>
